<svg width="18" height="18" viewBox="0 0 18 18" fill="none" xmlns="http://www.w3.org/2000/svg">
<path d="M7.7002 15.7488C7.83184 15.9768 8.02118 16.1661 8.24919 16.2977C8.47719 16.4294 8.73582 16.4987 8.9991 16.4987C9.26237 16.4987 9.521 16.4294 9.749 16.2977C9.97701 16.1661 10.1663 15.9768 10.298 15.7488" stroke="#667085" stroke-width="1.12491" stroke-linecap="round" stroke-linejoin="round"/>
<path d="M2.44594 11.4936C2.34797 11.601 2.28331 11.7345 2.25984 11.878C2.23637 12.0214 2.25509 12.1686 2.31373 12.3016C2.37236 12.4346 2.46839 12.5477 2.59012 12.6271C2.71185 12.7066 2.85404 12.7489 2.99939 12.749H14.9985C15.1438 12.7491 15.286 12.7069 15.4078 12.6276C15.5296 12.5483 15.6258 12.4354 15.6846 12.3024C15.7434 12.1695 15.7623 12.0224 15.739 11.8789C15.7157 11.7355 15.6512 11.6019 15.5534 11.4944C14.556 10.4662 13.4986 9.37353 13.4986 5.99954C13.4986 4.80615 13.0245 3.66165 12.1807 2.8178C11.3368 1.97395 10.1923 1.49988 8.99893 1.49988C7.80555 1.49988 6.66104 1.97395 5.8172 2.8178C4.97335 3.66165 4.49928 4.80615 4.49928 5.99954C4.49928 9.37353 3.44111 10.4662 2.44594 11.4936Z" stroke="#667085" stroke-width="1.12491" stroke-linecap="round" stroke-linejoin="round"/>
</svg>
