<svg width="18" height="18" viewBox="0 0 18 18" fill="none" xmlns="http://www.w3.org/2000/svg">
<g clip-path="url(#clip0_135_372)">
<path d="M11.9992 15.7488V14.2489C11.9992 13.4533 11.6831 12.6903 11.1206 12.1278C10.558 11.5652 9.79501 11.2491 8.99942 11.2491H4.49977C3.70418 11.2491 2.94118 11.5652 2.37861 12.1278C1.81605 12.6903 1.5 13.4533 1.5 14.2489V15.7488" stroke="#99A1AF" stroke-width="1.12491" stroke-linecap="round" stroke-linejoin="round"/>
<path d="M6.74928 8.24935C8.40601 8.24935 9.74905 6.90631 9.74905 5.24959C9.74905 3.59286 8.40601 2.24982 6.74928 2.24982C5.09255 2.24982 3.74951 3.59286 3.74951 5.24959C3.74951 6.90631 5.09255 8.24935 6.74928 8.24935Z" stroke="#99A1AF" stroke-width="1.12491" stroke-linecap="round" stroke-linejoin="round"/>
<path d="M16.4988 15.7488V14.2489C16.4984 13.5842 16.2771 12.9386 15.8699 12.4133C15.4627 11.888 14.8926 11.5128 14.249 11.3466" stroke="#99A1AF" stroke-width="1.12491" stroke-linecap="round" stroke-linejoin="round"/>
<path d="M11.999 2.34729C12.6443 2.5125 13.2162 2.88777 13.6246 3.41394C14.033 3.94011 14.2547 4.58724 14.2547 5.25332C14.2547 5.91939 14.033 6.56652 13.6246 7.09269C13.2162 7.61886 12.6443 7.99413 11.999 8.15934" stroke="#99A1AF" stroke-width="1.12491" stroke-linecap="round" stroke-linejoin="round"/>
</g>
<defs>
<clipPath id="clip0_135_372">
<rect width="17.9986" height="17.9986" fill="white"/>
</clipPath>
</defs>
</svg>
