<svg width="18" height="18" viewBox="0 0 18 18" fill="none" xmlns="http://www.w3.org/2000/svg">
<path d="M14.2491 5.24959V2.99976C14.2491 2.80086 14.1701 2.61011 14.0294 2.46947C13.8888 2.32883 13.698 2.24982 13.4991 2.24982H3.74988C3.35209 2.24982 2.97059 2.40784 2.68931 2.68912C2.40802 2.97041 2.25 3.35191 2.25 3.7497C2.25 4.1475 2.40802 4.529 2.68931 4.81028C2.97059 5.09156 3.35209 5.24959 3.74988 5.24959H14.999C15.1979 5.24959 15.3887 5.3286 15.5293 5.46924C15.6699 5.60988 15.749 5.80063 15.749 5.99953V8.9993M15.749 8.9993H13.4991C13.1013 8.9993 12.7198 9.15732 12.4386 9.4386C12.1573 9.71988 11.9992 10.1014 11.9992 10.4992C11.9992 10.897 12.1573 11.2785 12.4386 11.5598C12.7198 11.841 13.1013 11.9991 13.4991 11.9991H15.749C15.9479 11.9991 16.1386 11.9201 16.2792 11.7794C16.4199 11.6388 16.4989 11.448 16.4989 11.2491V9.74924C16.4989 9.55034 16.4199 9.35959 16.2792 9.21895C16.1386 9.07831 15.9479 8.9993 15.749 8.9993Z" stroke="#99A1AF" stroke-width="1.12491" stroke-linecap="round" stroke-linejoin="round"/>
<path d="M2.25 3.74973V14.2489C2.25 14.6467 2.40802 15.0282 2.68931 15.3095C2.97059 15.5908 3.35209 15.7488 3.74988 15.7488H14.999C15.1979 15.7488 15.3887 15.6698 15.5293 15.5291C15.6699 15.3885 15.749 15.1978 15.749 14.9989V11.9991" stroke="#99A1AF" stroke-width="1.12491" stroke-linecap="round" stroke-linejoin="round"/>
</svg>
