<svg width="18" height="18" viewBox="0 0 18 18" fill="none" xmlns="http://www.w3.org/2000/svg">
<g clip-path="url(#clip0_135_204)">
<path d="M8.99929 3.74971C9.00018 3.44976 8.94107 3.15265 8.82545 2.87588C8.70983 2.5991 8.54004 2.34824 8.32605 2.13804C8.11206 1.92785 7.8582 1.76257 7.5794 1.65192C7.30059 1.54127 7.00248 1.48749 6.70259 1.49374C6.4027 1.5 6.10709 1.56615 5.83314 1.68832C5.55919 1.81049 5.31244 1.98621 5.1074 2.20513C4.90235 2.42406 4.74315 2.68178 4.63917 2.96314C4.53518 3.24449 4.48851 3.5438 4.50189 3.84345C4.06108 3.9568 3.65183 4.16897 3.30516 4.46389C2.95848 4.75881 2.68346 5.12876 2.50093 5.54571C2.3184 5.96266 2.23314 6.41568 2.25161 6.87045C2.27008 7.32523 2.39179 7.76985 2.60754 8.17062C2.2282 8.47879 1.92991 8.87499 1.73861 9.32473C1.54731 9.77448 1.46879 10.2642 1.50989 10.7512C1.551 11.2382 1.71047 11.7078 1.97444 12.1191C2.23841 12.5304 2.59889 12.871 3.0245 13.1112C2.97195 13.5179 3.00331 13.931 3.11666 14.325C3.23001 14.7191 3.42295 15.0857 3.68354 15.4023C3.94414 15.7188 4.26687 15.9786 4.6318 16.1656C4.99672 16.3525 5.3961 16.4627 5.80527 16.4892C6.21444 16.5158 6.62471 16.4582 7.01074 16.3199C7.39677 16.1817 7.75036 15.9658 8.04969 15.6856C8.34901 15.4054 8.58771 15.0668 8.75104 14.6907C8.91436 14.3146 8.99886 13.909 8.99929 13.499V3.74971Z" stroke="#99A1AF" stroke-width="1.12491" stroke-linecap="round" stroke-linejoin="round"/>
<path d="M8.99928 3.74971C8.99839 3.44976 9.0575 3.15265 9.17312 2.87588C9.28874 2.5991 9.45853 2.34824 9.67252 2.13804C9.88651 1.92785 10.1404 1.76257 10.4192 1.65192C10.698 1.54127 10.9961 1.48749 11.296 1.49374C11.5959 1.5 11.8915 1.56615 12.1654 1.68832C12.4394 1.81049 12.6861 1.98621 12.8912 2.20513C13.0962 2.42406 13.2554 2.68178 13.3594 2.96314C13.4634 3.24449 13.5101 3.5438 13.4967 3.84345C13.9375 3.9568 14.3467 4.16897 14.6934 4.46389C15.0401 4.75881 15.3151 5.12876 15.4976 5.54571C15.6802 5.96266 15.7654 6.41568 15.747 6.87045C15.7285 7.32523 15.6068 7.76985 15.391 8.17062C15.7704 8.47879 16.0687 8.87499 16.26 9.32473C16.4513 9.77448 16.5298 10.2642 16.4887 10.7512C16.4476 11.2382 16.2881 11.7078 16.0241 12.1191C15.7602 12.5304 15.3997 12.871 14.9741 13.1112C15.0266 13.5179 14.9953 13.931 14.8819 14.325C14.7686 14.7191 14.5756 15.0857 14.315 15.4023C14.0544 15.7188 13.7317 15.9786 13.3668 16.1656C13.0018 16.3525 12.6025 16.4627 12.1933 16.4892C11.7841 16.5158 11.3739 16.4582 10.9878 16.3199C10.6018 16.1817 10.2482 15.9658 9.94888 15.6856C9.64956 15.4054 9.41086 15.0668 9.24754 14.6907C9.08421 14.3146 8.99971 13.909 8.99928 13.499V3.74971Z" stroke="#99A1AF" stroke-width="1.12491" stroke-linecap="round" stroke-linejoin="round"/>
<path d="M11.2492 9.74925C10.6195 9.52776 10.0697 9.12455 9.66928 8.59059C9.26882 8.05664 9.03568 7.41593 8.99934 6.74948C8.963 7.41593 8.72986 8.05664 8.3294 8.59059C7.92893 9.12455 7.37913 9.52776 6.74951 9.74925" stroke="#99A1AF" stroke-width="1.12491" stroke-linecap="round" stroke-linejoin="round"/>
<path d="M13.1982 4.87462C13.3797 4.56008 13.4824 4.20628 13.4975 3.84344" stroke="#99A1AF" stroke-width="1.12491" stroke-linecap="round" stroke-linejoin="round"/>
<path d="M4.50195 3.84344C4.51678 4.20622 4.61919 4.56001 4.80043 4.87462" stroke="#99A1AF" stroke-width="1.12491" stroke-linecap="round" stroke-linejoin="round"/>
<path d="M2.60767 8.17137C2.74486 8.05963 2.89167 7.96025 3.04638 7.87439" stroke="#99A1AF" stroke-width="1.12491" stroke-linecap="round" stroke-linejoin="round"/>
<path d="M14.9524 7.87439C15.1071 7.96025 15.2539 8.05963 15.3911 8.17137" stroke="#99A1AF" stroke-width="1.12491" stroke-linecap="round" stroke-linejoin="round"/>
<path d="M4.49955 13.499C3.98271 13.4992 3.47458 13.3659 3.02441 13.112" stroke="#99A1AF" stroke-width="1.12491" stroke-linecap="round" stroke-linejoin="round"/>
<path d="M14.9742 13.112C14.524 13.3659 14.0159 13.4992 13.499 13.499" stroke="#99A1AF" stroke-width="1.12491" stroke-linecap="round" stroke-linejoin="round"/>
</g>
<defs>
<clipPath id="clip0_135_204">
<rect width="17.9986" height="17.9986" fill="white"/>
</clipPath>
</defs>
</svg>
