<svg width="18" height="18" viewBox="0 0 18 18" fill="none" xmlns="http://www.w3.org/2000/svg">
<path d="M14.249 5.24959V2.99976C14.249 2.80086 14.1699 2.61011 14.0293 2.46947C13.8887 2.32883 13.6979 2.24982 13.499 2.24982H3.74976C3.35197 2.24982 2.97047 2.40784 2.68918 2.68912C2.4079 2.97041 2.24988 3.35191 2.24988 3.7497C2.24988 4.1475 2.4079 4.529 2.68918 4.81028C2.97047 5.09156 3.35197 5.24959 3.74976 5.24959H14.9989C15.1978 5.24959 15.3885 5.3286 15.5292 5.46924C15.6698 5.60988 15.7488 5.80063 15.7488 5.99953V8.9993M15.7488 8.9993H13.499C13.1012 8.9993 12.7197 9.15732 12.4384 9.4386C12.1571 9.71988 11.9991 10.1014 11.9991 10.4992C11.9991 10.897 12.1571 11.2785 12.4384 11.5598C12.7197 11.841 13.1012 11.9991 13.499 11.9991H15.7488C15.9477 11.9991 16.1385 11.9201 16.2791 11.7794C16.4198 11.6388 16.4988 11.448 16.4988 11.2491V9.74924C16.4988 9.55034 16.4198 9.35959 16.2791 9.21895C16.1385 9.07831 15.9477 8.9993 15.7488 8.9993Z" stroke="#059669" stroke-width="1.12491" stroke-linecap="round" stroke-linejoin="round"/>
<path d="M2.24988 3.74973V14.2489C2.24988 14.6467 2.4079 15.0282 2.68918 15.3095C2.97047 15.5908 3.35197 15.7488 3.74976 15.7488H14.9989C15.1978 15.7488 15.3885 15.6698 15.5292 15.5291C15.6698 15.3885 15.7488 15.1978 15.7488 14.9989V11.9991" stroke="#059669" stroke-width="1.12491" stroke-linecap="round" stroke-linejoin="round"/>
</svg>

