<svg width="18" height="18" viewBox="0 0 18 18" fill="none" xmlns="http://www.w3.org/2000/svg">
<path d="M4.49963 16.4987V2.99976C4.49963 2.60197 4.65766 2.22047 4.93894 1.93918C5.22022 1.6579 5.60172 1.49988 5.99952 1.49988H11.9991C12.3968 1.49988 12.7783 1.6579 13.0596 1.93918C13.3409 2.22047 13.4989 2.60197 13.4989 2.99976V16.4987H4.49963Z" stroke="#059669" stroke-width="1.12491" stroke-linecap="round" stroke-linejoin="round"/>
<path d="M4.49965 8.99933H2.99976C2.60197 8.99933 2.22047 9.15735 1.93918 9.43863C1.6579 9.71992 1.49988 10.1014 1.49988 10.4992V14.9989C1.49988 15.3967 1.6579 15.7782 1.93918 16.0594C2.22047 16.3407 2.60197 16.4987 2.99976 16.4987H4.49965" stroke="#059669" stroke-width="1.12491" stroke-linecap="round" stroke-linejoin="round"/>
<path d="M13.4989 6.74945H14.9988C15.3966 6.74945 15.7781 6.90747 16.0594 7.18876C16.3406 7.47004 16.4987 7.85154 16.4987 8.24933V14.9988C16.4987 15.3966 16.3406 15.7781 16.0594 16.0594C15.7781 16.3407 15.3966 16.4987 14.9988 16.4987H13.4989" stroke="#059669" stroke-width="1.12491" stroke-linecap="round" stroke-linejoin="round"/>
<path d="M7.49939 4.49963H10.4992" stroke="#059669" stroke-width="1.12491" stroke-linecap="round" stroke-linejoin="round"/>
<path d="M7.49939 7.49945H10.4992" stroke="#059669" stroke-width="1.12491" stroke-linecap="round" stroke-linejoin="round"/>
<path d="M7.49939 10.4992H10.4992" stroke="#059669" stroke-width="1.12491" stroke-linecap="round" stroke-linejoin="round"/>
<path d="M7.49939 13.499H10.4992" stroke="#059669" stroke-width="1.12491" stroke-linecap="round" stroke-linejoin="round"/>
</svg>

