<svg width="32" height="32" viewBox="0 0 32 32" fill="none" xmlns="http://www.w3.org/2000/svg">
<path d="M0 10C0 4.47716 4.47715 0 10 0H21.9935C27.5164 0 31.9935 4.47715 31.9935 10V21.9935C31.9935 27.5164 27.5164 31.9935 21.9935 31.9935H10C4.47716 31.9935 0 27.5164 0 21.9935V10Z" fill="#101828"/>
<g clip-path="url(#clip0_115_359)">
<path d="M15.9946 23.9974V18.6651C15.9946 18.4884 15.9243 18.3188 15.7993 18.1938C15.6743 18.0688 15.5048 17.9986 15.328 17.9986H12.6619C12.4851 17.9986 12.3156 18.0688 12.1906 18.1938C12.0656 18.3188 11.9954 18.4884 11.9954 18.6651V23.9974" stroke="white" stroke-width="1.66633" stroke-linecap="round" stroke-linejoin="round"/>
<path d="M7.99609 16.6655C7.99605 16.4716 8.03831 16.28 8.11993 16.1041C8.20155 15.9282 8.32056 15.7723 8.46867 15.6471L13.1344 11.6486C13.375 11.4452 13.6799 11.3336 13.9949 11.3336C14.3099 11.3336 14.6148 11.4452 14.8554 11.6486L19.5211 15.6471C19.6692 15.7723 19.7882 15.9282 19.8698 16.1041C19.9515 16.28 19.9937 16.4716 19.9937 16.6655V22.6643C19.9937 23.0179 19.8532 23.357 19.6032 23.607C19.3532 23.8569 19.0142 23.9974 18.6606 23.9974H9.32916C8.97561 23.9974 8.63654 23.8569 8.38654 23.607C8.13654 23.357 7.99609 23.0179 7.99609 22.6643V16.6655Z" stroke="white" stroke-width="1.66633" stroke-linecap="round" stroke-linejoin="round"/>
</g>
<g clip-path="url(#clip1_115_359)">
<path d="M20.1427 12.4492C20.1055 12.3052 20.0304 12.1737 19.9252 12.0685C19.82 11.9633 19.6885 11.8882 19.5444 11.851L16.9904 11.1924C16.9469 11.18 16.9085 11.1538 16.8812 11.1177C16.8539 11.0815 16.8391 11.0375 16.8391 10.9922C16.8391 10.9469 16.8539 10.9028 16.8812 10.8667C16.9085 10.8305 16.9469 10.8043 16.9904 10.7919L19.5444 10.1329C19.6885 10.0958 19.8199 10.0208 19.9251 9.91562C20.0303 9.81049 20.1054 9.6791 20.1427 9.53511L20.8013 6.98109C20.8135 6.93735 20.8397 6.89881 20.8759 6.87135C20.9121 6.8439 20.9563 6.82904 21.0017 6.82904C21.0471 6.82904 21.0913 6.8439 21.1275 6.87135C21.1637 6.89881 21.1899 6.93735 21.2022 6.98109L21.8603 9.53511C21.8975 9.67918 21.9726 9.81066 22.0778 9.91586C22.183 10.0211 22.3145 10.0962 22.4586 10.1333L25.0126 10.7915C25.0565 10.8036 25.0952 10.8298 25.1228 10.8661C25.1504 10.9023 25.1654 10.9466 25.1654 10.9922C25.1654 11.0377 25.1504 11.082 25.1228 11.1183C25.0952 11.1545 25.0565 11.1807 25.0126 11.1928L22.4586 11.851C22.3145 11.8882 22.183 11.9633 22.0778 12.0685C21.9726 12.1737 21.8975 12.3052 21.8603 12.4492L21.2017 15.0032C21.1895 15.047 21.1633 15.0855 21.1271 15.113C21.0909 15.1404 21.0467 15.1553 21.0013 15.1553C20.9559 15.1553 20.9117 15.1404 20.8755 15.113C20.8393 15.0855 20.8131 15.047 20.8008 15.0032L20.1427 12.4492Z" stroke="white" stroke-width="1.04076" stroke-linecap="round" stroke-linejoin="round"/>
</g>
<defs>
<clipPath id="clip0_115_359">
<rect width="15.9968" height="15.9968" fill="white" transform="translate(5.99658 10.0002)"/>
</clipPath>
<clipPath id="clip1_115_359">
<rect width="9.99125" height="9.99125" fill="white" transform="translate(16.0059 5.99654)"/>
</clipPath>
</defs>
</svg>
