<svg width="18" height="18" viewBox="0 0 18 18" fill="none" xmlns="http://www.w3.org/2000/svg">
<g clip-path="url(#clip0_38_144)">
<path d="M14.9988 9.74927C14.9988 13.499 12.374 15.3738 9.25428 16.4613C9.09092 16.5166 8.91346 16.514 8.75182 16.4538C5.62456 15.3738 2.99977 13.499 2.99977 9.74927V4.49968C2.99977 4.30078 3.07878 4.11003 3.21942 3.96939C3.36006 3.82875 3.55081 3.74974 3.74971 3.74974C5.24959 3.74974 7.12445 2.84981 8.42935 1.70989C8.58823 1.57415 8.79034 1.49957 8.9993 1.49957C9.20827 1.49957 9.41038 1.57415 9.56926 1.70989C10.8817 2.8573 12.749 3.74974 14.2489 3.74974C14.4478 3.74974 14.6385 3.82875 14.7792 3.96939C14.9198 4.11003 14.9988 4.30078 14.9988 4.49968V9.74927Z" stroke="#00BC7D" stroke-width="1.49988" stroke-linecap="round" stroke-linejoin="round"/>
<path d="M6.74948 8.99933L8.24936 10.4992L11.2491 7.49945" stroke="#00BC7D" stroke-width="1.49988" stroke-linecap="round" stroke-linejoin="round"/>
</g>
<defs>
<clipPath id="clip0_38_144">
<rect width="17.9986" height="17.9986" fill="white"/>
</clipPath>
</defs>
</svg>
