<svg width="10" height="10" viewBox="0 0 10 10" fill="none" xmlns="http://www.w3.org/2000/svg">
<path d="M3.71957 6.03649C3.6824 5.89242 3.60731 5.76094 3.5021 5.65573C3.39689 5.55052 3.26541 5.47543 3.12134 5.43826L0.567331 4.77967C0.523757 4.7673 0.485407 4.74106 0.458099 4.70492C0.430791 4.66878 0.416016 4.62472 0.416016 4.57943C0.416016 4.53413 0.430791 4.49007 0.458099 4.45394C0.485407 4.4178 0.523757 4.39156 0.567331 4.37919L3.12134 3.72018C3.26536 3.68305 3.39681 3.60802 3.50201 3.50289C3.60722 3.39776 3.68234 3.26637 3.71957 3.12237L4.37816 0.56836C4.3904 0.524614 4.41662 0.486074 4.45281 0.45862C4.489 0.431166 4.53318 0.416306 4.57861 0.416306C4.62404 0.416306 4.66822 0.431166 4.70441 0.45862C4.7406 0.486074 4.76682 0.524614 4.77906 0.56836L5.43723 3.12237C5.4744 3.26644 5.54949 3.39792 5.6547 3.50313C5.75991 3.60834 5.89139 3.68343 6.03546 3.7206L8.58947 4.37877C8.63339 4.39089 8.67212 4.41708 8.69972 4.45332C8.72733 4.48957 8.74227 4.53387 8.74227 4.57943C8.74227 4.62499 8.72733 4.66929 8.69972 4.70554C8.67212 4.74178 8.63339 4.76797 8.58947 4.78009L6.03546 5.43826C5.89139 5.47543 5.75991 5.55052 5.6547 5.65573C5.54949 5.76094 5.4744 5.89242 5.43723 6.03649L4.77864 8.5905C4.7664 8.63424 4.74018 8.67278 4.70399 8.70024C4.6678 8.72769 4.62362 8.74255 4.57819 8.74255C4.53277 8.74255 4.48859 8.72769 4.45239 8.70024C4.4162 8.67278 4.38999 8.63424 4.37774 8.5905L3.71957 6.03649Z" fill="#007A55" stroke="#007A55" stroke-width="0.832604" stroke-linecap="round" stroke-linejoin="round"/>
</svg>
