<svg width="14" height="14" viewBox="0 0 14 14" fill="none" xmlns="http://www.w3.org/2000/svg">
<path d="M5.83105 1.16626V2.3325" stroke="#98A2B3" stroke-width="1.16624" stroke-linecap="round" stroke-linejoin="round"/>
<path d="M8.16406 1.16626V2.3325" stroke="#98A2B3" stroke-width="1.16624" stroke-linecap="round" stroke-linejoin="round"/>
<path d="M9.32961 4.66498C9.48426 4.66498 9.63258 4.72641 9.74194 4.83577C9.8513 4.94513 9.91273 5.09345 9.91273 5.2481V9.91308C9.91273 10.5317 9.66699 11.125 9.22956 11.5624C8.79214 11.9998 8.19886 12.2456 7.58024 12.2456H4.08151C3.4629 12.2456 2.86962 11.9998 2.43219 11.5624C1.99477 11.125 1.74902 10.5317 1.74902 9.91308V5.2481C1.74902 5.09345 1.81046 4.94513 1.91982 4.83577C2.02917 4.72641 2.17749 4.66498 2.33215 4.66498H10.4959C11.1145 4.66498 11.7077 4.91072 12.1452 5.34815C12.5826 5.78557 12.8283 6.37885 12.8283 6.99747C12.8283 7.61608 12.5826 8.20936 12.1452 8.64678C11.7077 9.08421 11.1145 9.32995 10.4959 9.32995H9.91273" stroke="#98A2B3" stroke-width="1.16624" stroke-linecap="round" stroke-linejoin="round"/>
<path d="M3.49902 1.16626V2.3325" stroke="#98A2B3" stroke-width="1.16624" stroke-linecap="round" stroke-linejoin="round"/>
</svg>
