<svg width="12" height="12" viewBox="0 0 12 12" fill="none" xmlns="http://www.w3.org/2000/svg">
<g clip-path="url(#clip0_12_75)">
<path d="M2.99805 10.9937V1.99884C2.99805 1.73378 3.10334 1.47957 3.29077 1.29214C3.4782 1.10472 3.73241 0.99942 3.99747 0.99942H7.99517C8.26023 0.99942 8.51444 1.10472 8.70187 1.29214C8.88929 1.47957 8.99459 1.73378 8.99459 1.99884V10.9937H2.99805Z" stroke="#007A55" stroke-width="1.24928" stroke-linecap="round" stroke-linejoin="round"/>
<path d="M2.99787 5.99655H1.99845C1.73338 5.99655 1.47918 6.10185 1.29175 6.28928C1.10432 6.4767 0.999023 6.73091 0.999023 6.99598V9.99425C0.999023 10.2593 1.10432 10.5135 1.29175 10.7009C1.47918 10.8884 1.73338 10.9937 1.99845 10.9937H2.99787" stroke="#007A55" stroke-width="1.24928" stroke-linecap="round" stroke-linejoin="round"/>
<path d="M8.99512 4.49741H9.99454C10.2596 4.49741 10.5138 4.6027 10.7012 4.79013C10.8887 4.97756 10.994 5.23177 10.994 5.49683V9.99424C10.994 10.2593 10.8887 10.5135 10.7012 10.7009C10.5138 10.8884 10.2596 10.9937 9.99454 10.9937H8.99512" stroke="#007A55" stroke-width="1.24928" stroke-linecap="round" stroke-linejoin="round"/>
<path d="M4.99707 2.99826H6.99592" stroke="#007A55" stroke-width="1.24928" stroke-linecap="round" stroke-linejoin="round"/>
<path d="M4.99707 4.99713H6.99592" stroke="#007A55" stroke-width="1.24928" stroke-linecap="round" stroke-linejoin="round"/>
<path d="M4.99707 6.99597H6.99592" stroke="#007A55" stroke-width="1.24928" stroke-linecap="round" stroke-linejoin="round"/>
<path d="M4.99707 8.99481H6.99592" stroke="#007A55" stroke-width="1.24928" stroke-linecap="round" stroke-linejoin="round"/>
</g>
<defs>
<clipPath id="clip0_12_75">
<rect width="11.9931" height="11.9931" fill="white"/>
</clipPath>
</defs>
</svg>
