<svg width="14" height="14" viewBox="0 0 14 14" fill="none" xmlns="http://www.w3.org/2000/svg">
<g clip-path="url(#clip0_12_747)">
<path d="M3.49902 4.95655C3.49902 3.9513 3.89836 2.98723 4.60917 2.27641C5.31999 1.56559 6.28407 1.16626 7.28932 1.16626C8.29457 1.16626 9.25864 1.56559 9.96946 2.27641C10.6803 2.98723 11.0796 3.9513 11.0796 4.95655C11.0796 8.45529 7.58088 8.45529 7.58088 10.7878C7.58088 11.0558 7.52809 11.3212 7.42552 11.5688C7.32296 11.8164 7.17262 12.0414 6.9831 12.2309C6.79359 12.4204 6.5686 12.5708 6.32098 12.6733C6.07336 12.7759 5.80797 12.8287 5.53995 12.8287C5.27193 12.8287 5.00654 12.7759 4.75892 12.6733C4.51131 12.5708 4.28631 12.4204 4.0968 12.2309C3.90728 12.0414 3.75695 11.8164 3.65438 11.5688C3.55181 11.3212 3.49902 11.0558 3.49902 10.7878" stroke="#98A2B3" stroke-width="1.16624" stroke-linecap="round" stroke-linejoin="round"/>
<path d="M8.74667 4.95658C8.74667 4.56995 8.59308 4.19915 8.31968 3.92576C8.04629 3.65237 7.67549 3.49878 7.28886 3.49878C6.90223 3.49878 6.53143 3.65237 6.25804 3.92576C5.98464 4.19915 5.83105 4.56995 5.83105 4.95658V5.53971C6.14036 5.53971 6.437 5.66258 6.65571 5.88129C6.87443 6.1 6.9973 6.39664 6.9973 6.70595C6.9973 7.01526 6.87443 7.3119 6.65571 7.53061C6.437 7.74932 6.14036 7.87219 5.83105 7.87219" stroke="#98A2B3" stroke-width="1.16624" stroke-linecap="round" stroke-linejoin="round"/>
</g>
<defs>
<clipPath id="clip0_12_747">
<rect width="13.9949" height="13.9949" fill="white"/>
</clipPath>
</defs>
</svg>
