<svg width="12" height="12" viewBox="0 0 12 12" fill="none" xmlns="http://www.w3.org/2000/svg">
<g clip-path="url(#clip0_12_577)">
<path d="M3.99776 10.9937C4.27374 10.9937 4.49747 10.77 4.49747 10.494C4.49747 10.218 4.27374 9.99426 3.99776 9.99426C3.72178 9.99426 3.49805 10.218 3.49805 10.494C3.49805 10.77 3.72178 10.9937 3.99776 10.9937Z" stroke="#7E22CE" stroke-width="1.24928" stroke-linecap="round" stroke-linejoin="round"/>
<path d="M9.49483 10.9937C9.77081 10.9937 9.99454 10.77 9.99454 10.494C9.99454 10.218 9.77081 9.99426 9.49483 9.99426C9.21885 9.99426 8.99512 10.218 8.99512 10.494C8.99512 10.77 9.21885 10.9937 9.49483 10.9937Z" stroke="#7E22CE" stroke-width="1.24928" stroke-linecap="round" stroke-linejoin="round"/>
<path d="M1.02441 1.02441H2.02384L3.35307 7.23084C3.40183 7.45814 3.52831 7.66133 3.71072 7.80544C3.89314 7.94954 4.12008 8.02555 4.3525 8.02038H9.23968C9.46714 8.02001 9.68766 7.94207 9.86483 7.79943C10.042 7.65678 10.1652 7.45797 10.2141 7.23583L11.0386 3.52297H2.55853" stroke="#7E22CE" stroke-width="1.24928" stroke-linecap="round" stroke-linejoin="round"/>
</g>
<defs>
<clipPath id="clip0_12_577">
<rect width="11.9931" height="11.9931" fill="white"/>
</clipPath>
</defs>
</svg>
