<svg width="12" height="12" viewBox="0 0 12 12" fill="none" xmlns="http://www.w3.org/2000/svg">
<g clip-path="url(#clip0_12_570)">
<path d="M8.49462 6.99598L9.99376 8.64503C10.0622 8.71487 10.1087 8.80328 10.1274 8.89929C10.1461 8.9953 10.1363 9.09469 10.099 9.18514C10.0618 9.27559 9.9988 9.35312 9.91791 9.40812C9.83702 9.46312 9.74176 9.49316 9.64396 9.49454H2.34816C2.25036 9.49316 2.1551 9.46312 2.07421 9.40812C1.99332 9.35312 1.93035 9.27559 1.89311 9.18514C1.85586 9.09469 1.84599 8.9953 1.8647 8.89929C1.88341 8.80328 1.92988 8.71487 1.99836 8.64503L3.4975 6.99598H3.34759C3.24978 6.9946 3.15453 6.96455 3.07364 6.90956C2.99275 6.85456 2.92978 6.77703 2.89253 6.68658C2.85529 6.59613 2.84541 6.49674 2.86412 6.40073C2.88283 6.30472 2.92931 6.21631 2.99779 6.14647L4.49692 4.49742H4.39698C4.29491 4.50662 4.19248 4.48423 4.10357 4.43326C4.01466 4.3823 3.94357 4.30523 3.89994 4.2125C3.8563 4.11978 3.84223 4.01587 3.85963 3.91488C3.87703 3.81389 3.92506 3.72069 3.99721 3.64791L5.99606 1.49915L7.99491 3.64791C8.06706 3.72069 8.11509 3.81389 8.13249 3.91488C8.14989 4.01587 8.13582 4.11978 8.09218 4.2125C8.04855 4.30523 7.97746 4.3823 7.88855 4.43326C7.79964 4.48423 7.69721 4.50662 7.59514 4.49742H7.4952L8.99433 6.14647C9.06281 6.21631 9.10929 6.30472 9.128 6.40073C9.14671 6.49674 9.13683 6.59613 9.09959 6.68658C9.06234 6.77703 8.99937 6.85456 8.91848 6.90956C8.83759 6.96455 8.74234 6.9946 8.64453 6.99598H8.49462Z" stroke="#15803D" stroke-width="1.24928" stroke-linecap="round" stroke-linejoin="round"/>
<path d="M5.99609 10.9936V9.49451" stroke="#15803D" stroke-width="1.24928" stroke-linecap="round" stroke-linejoin="round"/>
</g>
<defs>
<clipPath id="clip0_12_570">
<rect width="11.9931" height="11.9931" fill="white"/>
</clipPath>
</defs>
</svg>
