<svg width="12" height="12" viewBox="0 0 12 12" fill="none" xmlns="http://www.w3.org/2000/svg">
<g clip-path="url(#clip0_12_501)">
<path d="M4.99747 1.99884L3.99805 2.99826" stroke="#99A1AF" stroke-width="0.999424" stroke-linecap="round" stroke-linejoin="round"/>
<path d="M8.49512 9.49454V10.494" stroke="#99A1AF" stroke-width="0.999424" stroke-linecap="round" stroke-linejoin="round"/>
<path d="M0.999023 5.99655H10.9933" stroke="#99A1AF" stroke-width="0.999424" stroke-linecap="round" stroke-linejoin="round"/>
<path d="M3.49805 9.49454V10.494" stroke="#99A1AF" stroke-width="0.999424" stroke-linecap="round" stroke-linejoin="round"/>
<path d="M4.49758 2.49856L3.80848 1.80946C3.66397 1.66428 3.48049 1.56408 3.28023 1.521C3.07996 1.47791 2.87151 1.49378 2.68008 1.56668C2.48865 1.63958 2.32244 1.7664 2.20157 1.93178C2.08071 2.09717 2.01035 2.29403 1.99902 2.49856V8.49511C1.99902 8.76017 2.10432 9.01438 2.29175 9.2018C2.47918 9.38923 2.73338 9.49453 2.99845 9.49453H8.99499C9.26006 9.49453 9.51426 9.38923 9.70169 9.2018C9.88912 9.01438 9.99442 8.76017 9.99442 8.49511V5.99654" stroke="#99A1AF" stroke-width="0.999424" stroke-linecap="round" stroke-linejoin="round"/>
</g>
<defs>
<clipPath id="clip0_12_501">
<rect width="11.9931" height="11.9931" fill="white"/>
</clipPath>
</defs>
</svg>
