<svg width="14" height="14" viewBox="0 0 14 14" fill="none" xmlns="http://www.w3.org/2000/svg">
<g clip-path="url(#clip0_12_719)">
<path d="M5.83105 1.16626V2.3325" stroke="#98A2B3" stroke-width="1.16624" stroke-linecap="round" stroke-linejoin="round"/>
<path d="M8.16406 1.16626V2.3325" stroke="#98A2B3" stroke-width="1.16624" stroke-linecap="round" stroke-linejoin="round"/>
<path d="M9.32961 4.66492C9.48426 4.66492 9.63258 4.72635 9.74194 4.83571C9.8513 4.94507 9.91273 5.09339 9.91273 5.24804V9.91302C9.91273 10.5316 9.66699 11.1249 9.22956 11.5623C8.79214 11.9998 8.19886 12.2455 7.58024 12.2455H4.08151C3.4629 12.2455 2.86962 11.9998 2.43219 11.5623C1.99477 11.1249 1.74902 10.5316 1.74902 9.91302V5.24804C1.74902 5.09339 1.81046 4.94507 1.91982 4.83571C2.02917 4.72635 2.17749 4.66492 2.33215 4.66492H10.4959C11.1145 4.66492 11.7077 4.91066 12.1452 5.34809C12.5826 5.78551 12.8283 6.37879 12.8283 6.99741C12.8283 7.61602 12.5826 8.2093 12.1452 8.64672C11.7077 9.08415 11.1145 9.32989 10.4959 9.32989H9.91273" stroke="#98A2B3" stroke-width="1.16624" stroke-linecap="round" stroke-linejoin="round"/>
<path d="M3.49902 1.16626V2.3325" stroke="#98A2B3" stroke-width="1.16624" stroke-linecap="round" stroke-linejoin="round"/>
</g>
<defs>
<clipPath id="clip0_12_719">
<rect width="13.9949" height="13.9949" fill="white"/>
</clipPath>
</defs>
</svg>
