<svg width="14" height="14" viewBox="0 0 14 14" fill="none" xmlns="http://www.w3.org/2000/svg">
<g clip-path="url(#clip0_12_703)">
<path d="M8.16354 12.8287V10.4962C8.16354 10.1869 8.04067 9.89025 7.82196 9.67154C7.60324 9.45283 7.30661 9.32996 6.9973 9.32996C6.68799 9.32996 6.39135 9.45283 6.17264 9.67154C5.95393 9.89025 5.83105 10.1869 5.83105 10.4962V12.8287" stroke="#98A2B3" stroke-width="1.16624" stroke-linecap="round" stroke-linejoin="round"/>
<path d="M10.496 5.83118L12.506 6.83648C12.6028 6.88487 12.6843 6.95927 12.7413 7.05134C12.7982 7.14342 12.8284 7.24953 12.8285 7.35779V11.6624C12.8285 11.9717 12.7056 12.2683 12.4869 12.4871C12.2682 12.7058 11.9715 12.8286 11.6622 12.8286H2.33226C2.02295 12.8286 1.72631 12.7058 1.5076 12.4871C1.28889 12.2683 1.16602 11.9717 1.16602 11.6624V7.35779C1.16607 7.24953 1.19627 7.14342 1.25322 7.05134C1.31018 6.95927 1.39164 6.88487 1.48848 6.83648L3.4985 5.83118" stroke="#98A2B3" stroke-width="1.16624" stroke-linecap="round" stroke-linejoin="round"/>
<path d="M10.4961 2.91565V12.8287" stroke="#98A2B3" stroke-width="1.16624" stroke-linecap="round" stroke-linejoin="round"/>
<path d="M2.33203 3.49879L6.4757 1.42695C6.63757 1.34607 6.81605 1.30396 6.99701 1.30396C7.17797 1.30396 7.35644 1.34607 7.51832 1.42695L11.662 3.49879" stroke="#98A2B3" stroke-width="1.16624" stroke-linecap="round" stroke-linejoin="round"/>
<path d="M3.49902 2.91565V12.8287" stroke="#98A2B3" stroke-width="1.16624" stroke-linecap="round" stroke-linejoin="round"/>
<path d="M6.9973 6.4144C7.6414 6.4144 8.16354 5.89225 8.16354 5.24815C8.16354 4.60405 7.6414 4.08191 6.9973 4.08191C6.3532 4.08191 5.83105 4.60405 5.83105 5.24815C5.83105 5.89225 6.3532 6.4144 6.9973 6.4144Z" stroke="#98A2B3" stroke-width="1.16624" stroke-linecap="round" stroke-linejoin="round"/>
</g>
<defs>
<clipPath id="clip0_12_703">
<rect width="13.9949" height="13.9949" fill="white"/>
</clipPath>
</defs>
</svg>
