<svg width="32" height="32" viewBox="0 0 32 32" fill="none" xmlns="http://www.w3.org/2000/svg">
<path d="M0 10C0 4.47716 4.47715 0 10 0H21.9935C27.5164 0 31.9935 4.47715 31.9935 10V21.9935C31.9935 27.5164 27.5164 31.9935 21.9935 31.9935H10C4.47716 31.9935 0 27.5164 0 21.9935V10Z" fill="#101828"/>
<path d="M15.9943 23.9974V18.6651C15.9943 18.4884 15.9241 18.3188 15.7991 18.1938C15.6741 18.0688 15.5046 17.9986 15.3278 17.9986H12.6616C12.4849 17.9986 12.3153 18.0688 12.1903 18.1938C12.0653 18.3188 11.9951 18.4884 11.9951 18.6651V23.9974" stroke="white" stroke-width="1.66633" stroke-linecap="round" stroke-linejoin="round"/>
<path d="M7.99609 16.6655C7.99605 16.4716 8.03831 16.28 8.11993 16.1041C8.20155 15.9282 8.32056 15.7723 8.46867 15.6471L13.1344 11.6486C13.375 11.4452 13.6799 11.3336 13.9949 11.3336C14.3099 11.3336 14.6148 11.4452 14.8554 11.6486L19.5211 15.6471C19.6692 15.7723 19.7882 15.9282 19.8698 16.1041C19.9515 16.28 19.9937 16.4716 19.9937 16.6655V22.6643C19.9937 23.0179 19.8532 23.357 19.6032 23.607C19.3532 23.857 19.0142 23.9974 18.6606 23.9974H9.32916C8.97561 23.9974 8.63654 23.857 8.38654 23.607C8.13654 23.357 7.99609 23.0179 7.99609 22.6643V16.6655Z" stroke="white" stroke-width="1.66633" stroke-linecap="round" stroke-linejoin="round"/>
<g clip-path="url(#clip0_12_762)">
<path d="M20.1424 12.4492C20.1053 12.3052 20.0302 12.1737 19.925 12.0685C19.8197 11.9633 19.6883 11.8882 19.5442 11.851L16.9902 11.1924C16.9466 11.18 16.9083 11.1538 16.881 11.1177C16.8536 11.0815 16.8389 11.0375 16.8389 10.9922C16.8389 10.9469 16.8536 10.9028 16.881 10.8667C16.9083 10.8305 16.9466 10.8043 16.9902 10.7919L19.5442 10.1329C19.6882 10.0958 19.8197 10.0208 19.9249 9.91563C20.0301 9.8105 20.1052 9.6791 20.1424 9.53511L20.801 6.9811C20.8133 6.93735 20.8395 6.89881 20.8757 6.87136C20.9119 6.8439 20.956 6.82904 21.0015 6.82904C21.0469 6.82904 21.0911 6.8439 21.1273 6.87136C21.1635 6.89881 21.1897 6.93735 21.2019 6.9811L21.8601 9.53511C21.8973 9.67918 21.9723 9.81066 22.0776 9.91587C22.1828 10.0211 22.3142 10.0962 22.4583 10.1333L25.0123 10.7915C25.0562 10.8036 25.095 10.8298 25.1226 10.8661C25.1502 10.9023 25.1651 10.9466 25.1651 10.9922C25.1651 11.0377 25.1502 11.082 25.1226 11.1183C25.095 11.1545 25.0562 11.1807 25.0123 11.1928L22.4583 11.851C22.3142 11.8882 22.1828 11.9633 22.0776 12.0685C21.9723 12.1737 21.8973 12.3052 21.8601 12.4492L21.2015 15.0032C21.1893 15.047 21.163 15.0855 21.1268 15.113C21.0907 15.1404 21.0465 15.1553 21.001 15.1553C20.9556 15.1553 20.9114 15.1404 20.8752 15.113C20.8391 15.0855 20.8128 15.047 20.8006 15.0032L20.1424 12.4492Z" stroke="white" stroke-width="1.04076" stroke-linecap="round" stroke-linejoin="round"/>
</g>
<defs>
<clipPath id="clip0_12_762">
<rect width="9.99125" height="9.99125" fill="white" transform="translate(16.0059 5.99654)"/>
</clipPath>
</defs>
</svg>
