<svg width="65" height="21" viewBox="0 0 65 21" fill="none" xmlns="http://www.w3.org/2000/svg">
<path d="M1.00426 15.7236V5.54174H2.84872V9.85211H7.56676V5.54174H9.41619V15.7236H7.56676V11.3983H2.84872V15.7236H1.00426ZM14.3237 15.8727C13.5779 15.8727 12.9316 15.7086 12.3847 15.3805C11.8379 15.0524 11.4136 14.5933 11.112 14.0034C10.8137 13.4134 10.6646 12.724 10.6646 11.9352C10.6646 11.1464 10.8137 10.4553 11.112 9.86205C11.4136 9.26877 11.8379 8.80807 12.3847 8.47995C12.9316 8.15182 13.5779 7.98776 14.3237 7.98776C15.0694 7.98776 15.7157 8.15182 16.2626 8.47995C16.8094 8.80807 17.232 9.26877 17.5303 9.86205C17.8319 10.4553 17.9827 11.1464 17.9827 11.9352C17.9827 12.724 17.8319 13.4134 17.5303 14.0034C17.232 14.5933 16.8094 15.0524 16.2626 15.3805C15.7157 15.7086 15.0694 15.8727 14.3237 15.8727ZM14.3336 14.4309C14.7379 14.4309 15.076 14.3199 15.3478 14.0978C15.6196 13.8725 15.8218 13.5709 15.9543 13.193C16.0902 12.8152 16.1582 12.3942 16.1582 11.9302C16.1582 11.4629 16.0902 11.0403 15.9543 10.6625C15.8218 10.2813 15.6196 9.97805 15.3478 9.75268C15.076 9.5273 14.7379 9.41461 14.3336 9.41461C13.9193 9.41461 13.5746 9.5273 13.2995 9.75268C13.0277 9.97805 12.8239 10.2813 12.688 10.6625C12.5554 11.0403 12.4891 11.4629 12.4891 11.9302C12.4891 12.3942 12.5554 12.8152 12.688 13.193C12.8239 13.5709 13.0277 13.8725 13.2995 14.0978C13.5746 14.3199 13.9193 14.4309 14.3336 14.4309ZM24.0274 12.5119V8.08719H25.8272V15.7236H24.0821V14.3663H24.0026C23.8302 14.7939 23.5469 15.1435 23.1524 15.4153C22.7614 15.6871 22.2791 15.823 21.7057 15.823C21.2052 15.823 20.7628 15.712 20.3783 15.4899C19.9971 15.2645 19.6989 14.938 19.4834 14.5105C19.268 14.0796 19.1603 13.5593 19.1603 12.9494V8.08719H20.96V12.671C20.96 13.1549 21.0926 13.5394 21.3577 13.8244C21.6229 14.1094 21.9709 14.252 22.4017 14.252C22.6669 14.252 22.9238 14.1873 23.1723 14.0581C23.4209 13.9288 23.6248 13.7366 23.7838 13.4814C23.9462 13.2228 24.0274 12.8997 24.0274 12.5119ZM33.3634 10.1057L31.7227 10.2846C31.6763 10.1189 31.5951 9.96314 31.4791 9.81731C31.3664 9.67147 31.214 9.55381 31.0217 9.46432C30.8295 9.37483 30.5942 9.33009 30.3158 9.33009C29.9412 9.33009 29.6264 9.41129 29.3712 9.5737C29.1193 9.7361 28.995 9.94657 28.9983 10.2051C28.995 10.4272 29.0762 10.6078 29.2419 10.747C29.4109 10.8862 29.6893 11.0005 30.0771 11.09L31.3797 11.3684C32.1022 11.5242 32.6392 11.7711 32.9905 12.1092C33.3451 12.4473 33.5241 12.8897 33.5274 13.4366C33.5241 13.9172 33.3832 14.3415 33.1048 14.7094C32.8297 15.0739 32.4469 15.359 31.9564 15.5645C31.4659 15.77 30.9024 15.8727 30.2661 15.8727C29.3314 15.8727 28.579 15.6772 28.0089 15.2861C27.4389 14.8916 27.0991 14.3431 26.9898 13.6405L28.7447 13.4714C28.8243 13.8161 28.9933 14.0763 29.2518 14.252C29.5104 14.4276 29.8468 14.5155 30.2611 14.5155C30.6886 14.5155 31.0317 14.4276 31.2902 14.252C31.552 14.0763 31.683 13.8592 31.683 13.6007C31.683 13.3819 31.5984 13.2013 31.4294 13.0588C31.2637 12.9163 31.0052 12.8069 30.6538 12.7307L29.3513 12.4572C28.6188 12.3048 28.0769 12.0479 27.7256 11.6866C27.3742 11.322 27.2002 10.8613 27.2036 10.3045C27.2002 9.83388 27.3278 9.42621 27.5864 9.08151C27.8482 8.7335 28.2111 8.46503 28.6751 8.27611C29.1425 8.08388 29.6811 7.98776 30.2909 7.98776C31.1858 7.98776 31.8901 8.17834 32.4038 8.55949C32.9209 8.94065 33.2407 9.45604 33.3634 10.1057ZM34.6614 15.7236V8.08719H36.3816V9.38478H36.4711C36.6302 8.94728 36.8937 8.6059 37.2616 8.36063C37.6295 8.11205 38.0686 7.98776 38.579 7.98776C39.0961 7.98776 39.5319 8.11371 39.8866 8.3656C40.2445 8.61418 40.4964 8.95391 40.6423 9.38478H40.7218C40.8908 8.96054 41.1759 8.62247 41.5769 8.37057C41.9813 8.11537 42.4602 7.98776 43.0137 7.98776C43.7164 7.98776 44.2897 8.20983 44.7339 8.65395C45.178 9.09808 45.4001 9.74605 45.4001 10.5978V15.7236H43.5954V10.8763C43.5954 10.4023 43.4694 10.0559 43.2175 9.83719C42.9656 9.61513 42.6574 9.5041 42.2928 9.5041C41.8586 9.5041 41.5189 9.63999 41.2736 9.91177C41.0317 10.1802 40.9107 10.5299 40.9107 10.9608V15.7236H39.1458V10.8017C39.1458 10.4073 39.0265 10.0924 38.7879 9.85708C38.5525 9.62176 38.2443 9.5041 37.8631 9.5041C37.6046 9.5041 37.3693 9.57038 37.1572 9.70296C36.9451 9.83222 36.776 10.0162 36.6501 10.2548C36.5241 10.4901 36.4611 10.7652 36.4611 11.0801V15.7236H34.6614ZM49.0733 15.8777C48.5894 15.8777 48.1536 15.7915 47.7658 15.6192C47.3813 15.4435 47.0764 15.185 46.851 14.8436C46.629 14.5022 46.5179 14.0813 46.5179 13.5808C46.5179 13.1499 46.5975 12.7936 46.7566 12.5119C46.9157 12.2302 47.1328 12.0048 47.4078 11.8358C47.6829 11.6667 47.9928 11.5391 48.3375 11.453C48.6855 11.3635 49.0452 11.2988 49.4164 11.2591C49.8638 11.2127 50.2267 11.1712 50.5051 11.1348C50.7836 11.095 50.9857 11.0353 51.1117 10.9558C51.2409 10.8729 51.3056 10.7453 51.3056 10.573V10.5432C51.3056 10.1686 51.1945 9.87862 50.9725 9.67313C50.7504 9.46764 50.4306 9.36489 50.013 9.36489C49.5721 9.36489 49.2225 9.46101 48.964 9.65324C48.7087 9.84548 48.5364 10.0725 48.4469 10.3344L46.7665 10.0957C46.8991 9.6317 47.1178 9.24392 47.4228 8.93236C47.7277 8.6175 48.1006 8.38217 48.5414 8.2264C48.9822 8.06731 49.4694 7.98776 50.003 7.98776C50.3709 7.98776 50.7372 8.03085 51.1017 8.11702C51.4663 8.2032 51.7994 8.34572 52.101 8.54458C52.4026 8.74013 52.6446 9.00694 52.8269 9.34501C53.0125 9.68307 53.1053 10.1057 53.1053 10.6128V15.7236H51.3752V14.6746H51.3155C51.2061 14.8867 51.052 15.0855 50.8532 15.2711C50.6576 15.4534 50.4107 15.6009 50.1124 15.7136C49.8174 15.823 49.4711 15.8777 49.0733 15.8777ZM49.5407 14.5552C49.9019 14.5552 50.2151 14.484 50.4803 14.3415C50.7454 14.1956 50.9493 14.0034 51.0918 13.7647C51.2376 13.5261 51.3105 13.2659 51.3105 12.9842V12.0844C51.2542 12.1308 51.1581 12.1738 51.0222 12.2136C50.8896 12.2534 50.7405 12.2882 50.5748 12.318C50.409 12.3478 50.245 12.3744 50.0826 12.3976C49.9202 12.4208 49.7793 12.4406 49.66 12.4572C49.3915 12.4937 49.1512 12.5533 48.9391 12.6362C48.727 12.7191 48.5596 12.8351 48.437 12.9842C48.3143 13.13 48.253 13.319 48.253 13.551C48.253 13.8824 48.374 14.1326 48.6159 14.3017C48.8579 14.4707 49.1661 14.5552 49.5407 14.5552ZM54.565 15.7236V8.08719H56.31V9.35992H56.3895C56.5287 8.91911 56.7674 8.57938 57.1054 8.34074C57.4468 8.09879 57.8363 7.97782 58.2738 7.97782C58.3732 7.97782 58.4842 7.98279 58.6069 7.99273C58.7328 7.99936 58.8372 8.01096 58.9201 8.02753V9.68307C58.8438 9.65656 58.7229 9.63336 58.5571 9.61347C58.3947 9.59027 58.2373 9.57867 58.0848 9.57867C57.7567 9.57867 57.4617 9.64993 57.1999 9.79245C56.9414 9.93165 56.7375 10.1255 56.5884 10.3741C56.4392 10.6227 56.3647 10.9094 56.3647 11.2342V15.7236H54.565ZM63.9891 8.08719V9.47924H59.5992V8.08719H63.9891ZM60.683 6.25765H62.4827V13.4267C62.4827 13.6686 62.5192 13.8542 62.5921 13.9835C62.6683 14.1094 62.7677 14.1956 62.8904 14.242C63.013 14.2884 63.1489 14.3116 63.298 14.3116C63.4107 14.3116 63.5135 14.3033 63.6063 14.2868C63.7024 14.2702 63.7753 14.2553 63.825 14.242L64.1283 15.649C64.0322 15.6821 63.8946 15.7186 63.7157 15.7584C63.54 15.7981 63.3246 15.8213 63.0694 15.828C62.6186 15.8412 62.2126 15.7733 61.8513 15.6241C61.49 15.4717 61.2033 15.2363 60.9912 14.9182C60.7824 14.6 60.6797 14.2022 60.683 13.725V6.25765Z" fill="#101828"/>
</svg>
