<svg width="12" height="12" viewBox="0 0 12 12" fill="none" xmlns="http://www.w3.org/2000/svg">
<path d="M7.49534 10.4939V6.49623C7.49534 6.3637 7.44269 6.2366 7.34898 6.14288C7.25527 6.04917 7.12816 5.99652 6.99563 5.99652H4.99678C4.86425 5.99652 4.73715 6.04917 4.64343 6.14288C4.54972 6.2366 4.49707 6.3637 4.49707 6.49623V10.4939" stroke="white" stroke-width="1.24928" stroke-linecap="round" stroke-linejoin="round"/>
<path d="M1.49902 4.99713C1.49899 4.85175 1.53067 4.70811 1.59186 4.57623C1.65306 4.44435 1.74228 4.32742 1.85332 4.23357L5.3513 1.2358C5.53169 1.08334 5.76025 0.999695 5.99643 0.999695C6.23262 0.999695 6.46117 1.08334 6.64156 1.2358L10.1395 4.23357C10.2506 4.32742 10.3398 4.44435 10.401 4.57623C10.4622 4.70811 10.4939 4.85175 10.4938 4.99713V9.49454C10.4938 9.7596 10.3885 10.0138 10.2011 10.2012C10.0137 10.3887 9.75948 10.494 9.49442 10.494H2.49845C2.23338 10.494 1.97918 10.3887 1.79175 10.2012C1.60432 10.0138 1.49902 9.7596 1.49902 9.49454V4.99713Z" stroke="white" stroke-width="1.24928" stroke-linecap="round" stroke-linejoin="round"/>
</svg>
