<svg width="12" height="12" viewBox="0 0 12 12" fill="none" xmlns="http://www.w3.org/2000/svg">
<g clip-path="url(#clip0_150_3082)">
<path d="M2.99805 4.24755C2.99805 3.38609 3.34026 2.55992 3.9494 1.95077C4.55854 1.34163 5.38472 0.99942 6.24618 0.99942C7.10763 0.99942 7.93381 1.34163 8.54295 1.95077C9.15209 2.55992 9.4943 3.38609 9.4943 4.24755C9.4943 7.24582 6.49603 7.24582 6.49603 9.24467C6.49603 9.47435 6.45079 9.70178 6.3629 9.91398C6.275 10.1262 6.14617 10.319 5.98376 10.4814C5.82135 10.6438 5.62855 10.7726 5.41635 10.8605C5.20415 10.9484 4.97672 10.9937 4.74704 10.9937C4.51736 10.9937 4.28993 10.9484 4.07773 10.8605C3.86553 10.7726 3.67272 10.6438 3.51031 10.4814C3.34791 10.319 3.21908 10.1262 3.13118 9.91398C3.04329 9.70178 2.99805 9.47435 2.99805 9.24467" stroke="#B42318" stroke-width="1.24928" stroke-linecap="round" stroke-linejoin="round"/>
<path d="M7.49563 4.24754C7.49563 3.91621 7.36401 3.59845 7.12972 3.36417C6.89544 3.12988 6.57768 2.99826 6.24635 2.99826C5.91502 2.99826 5.59726 3.12988 5.36298 3.36417C5.12869 3.59845 4.99707 3.91621 4.99707 4.24754V4.74725C5.26213 4.74725 5.51634 4.85255 5.70377 5.03998C5.8912 5.22741 5.99649 5.48161 5.99649 5.74668C5.99649 6.01174 5.8912 6.26595 5.70377 6.45338C5.51634 6.6408 5.26213 6.7461 4.99707 6.7461" stroke="#B42318" stroke-width="1.24928" stroke-linecap="round" stroke-linejoin="round"/>
</g>
<defs>
<clipPath id="clip0_150_3082">
<rect width="11.9931" height="11.9931" fill="white"/>
</clipPath>
</defs>
</svg>
