<svg width="12" height="12" viewBox="0 0 12 12" fill="none" xmlns="http://www.w3.org/2000/svg">
<g clip-path="url(#clip0_12_100)">
<path d="M10.8585 8.99481L6.86085 1.99884C6.77368 1.84503 6.64727 1.7171 6.49452 1.62809C6.34177 1.53908 6.16814 1.49219 5.99135 1.49219C5.81456 1.49219 5.64093 1.53908 5.48818 1.62809C5.33543 1.7171 5.20902 1.84503 5.12185 1.99884L1.12416 8.99481C1.03605 9.1474 0.989847 9.32058 0.990237 9.49678C0.990627 9.67298 1.03759 9.84595 1.12638 9.99815C1.21516 10.1503 1.3426 10.2764 1.49579 10.3634C1.64897 10.4505 1.82246 10.4955 1.99865 10.4939H9.99404C10.1694 10.4938 10.3416 10.4475 10.4934 10.3597C10.6452 10.2719 10.7712 10.1457 10.8588 9.99379C10.9464 9.84189 10.9925 9.66962 10.9924 9.49427C10.9924 9.31892 10.9462 9.14667 10.8585 8.99481Z" stroke="#B42318" stroke-width="0.999424" stroke-linecap="round" stroke-linejoin="round"/>
<path d="M5.99609 4.49741V6.49625" stroke="#B42318" stroke-width="0.999424" stroke-linecap="round" stroke-linejoin="round"/>
<path d="M5.99609 8.49512H6.00109" stroke="#B42318" stroke-width="0.999424" stroke-linecap="round" stroke-linejoin="round"/>
</g>
<defs>
<clipPath id="clip0_12_100">
<rect width="11.9931" height="11.9931" fill="white"/>
</clipPath>
</defs>
</svg>
