<svg width="14" height="14" viewBox="0 0 14 14" fill="none" xmlns="http://www.w3.org/2000/svg">
<g clip-path="url(#clip0_150_3442)">
<path d="M11.662 7.58056C11.662 10.4962 9.62106 11.954 7.19527 12.7995C7.06824 12.8425 6.93026 12.8405 6.80458 12.7937C4.37296 11.954 2.33203 10.4962 2.33203 7.58056V3.49871C2.33203 3.34405 2.39347 3.19573 2.50282 3.08638C2.61218 2.97702 2.7605 2.91558 2.91515 2.91558C4.0814 2.91558 5.5392 2.21584 6.55383 1.32949C6.67737 1.22395 6.83452 1.16595 6.99701 1.16595C7.15949 1.16595 7.31664 1.22395 7.44018 1.32949C8.46064 2.22167 9.91262 2.91558 11.0789 2.91558C11.2335 2.91558 11.3818 2.97702 11.4912 3.08638C11.6005 3.19573 11.662 3.34405 11.662 3.49871V7.58056Z" stroke="#98A2B3" stroke-width="1.16624" stroke-linecap="round" stroke-linejoin="round"/>
<path d="M5.24805 6.99748L6.41429 8.16373L8.74678 5.83124" stroke="#98A2B3" stroke-width="1.16624" stroke-linecap="round" stroke-linejoin="round"/>
</g>
<defs>
<clipPath id="clip0_150_3442">
<rect width="13.9949" height="13.9949" fill="white"/>
</clipPath>
</defs>
</svg>
