<svg width="10" height="10" viewBox="0 0 10 10" fill="none" xmlns="http://www.w3.org/2000/svg">
<g clip-path="url(#clip0_12_35)">
<path d="M7.49305 3.33042C8.1828 3.33042 8.74195 2.77127 8.74195 2.08152C8.74195 1.39177 8.1828 0.832611 7.49305 0.832611C6.80329 0.832611 6.24414 1.39177 6.24414 2.08152C6.24414 2.77127 6.80329 3.33042 7.49305 3.33042Z" stroke="#6A7282" stroke-width="0.832604" stroke-linecap="round" stroke-linejoin="round"/>
<path d="M2.49793 6.24453C3.18768 6.24453 3.74684 5.68538 3.74684 4.99563C3.74684 4.30587 3.18768 3.74672 2.49793 3.74672C1.80818 3.74672 1.24902 4.30587 1.24902 4.99563C1.24902 5.68538 1.80818 6.24453 2.49793 6.24453Z" stroke="#6A7282" stroke-width="0.832604" stroke-linecap="round" stroke-linejoin="round"/>
<path d="M7.49305 9.15864C8.1828 9.15864 8.74195 8.59949 8.74195 7.90973C8.74195 7.21998 8.1828 6.66083 7.49305 6.66083C6.80329 6.66083 6.24414 7.21998 6.24414 7.90973C6.24414 8.59949 6.80329 9.15864 7.49305 9.15864Z" stroke="#6A7282" stroke-width="0.832604" stroke-linecap="round" stroke-linejoin="round"/>
<path d="M3.57617 5.62424L6.41951 7.28112" stroke="#6A7282" stroke-width="0.832604" stroke-linecap="round" stroke-linejoin="round"/>
<path d="M6.41535 2.71013L3.57617 4.36701" stroke="#6A7282" stroke-width="0.832604" stroke-linecap="round" stroke-linejoin="round"/>
</g>
<defs>
<clipPath id="clip0_12_35">
<rect width="9.99125" height="9.99125" fill="white"/>
</clipPath>
</defs>
</svg>
