<svg width="14" height="14" viewBox="0 0 14 14" fill="none" xmlns="http://www.w3.org/2000/svg">
<g clip-path="url(#clip0_12_691)">
<path d="M11.662 7.58062C11.662 10.4962 9.62106 11.954 7.19527 12.7996C7.06824 12.8426 6.93026 12.8405 6.80458 12.7937C4.37296 11.954 2.33203 10.4962 2.33203 7.58062V3.49877C2.33203 3.34411 2.39347 3.19579 2.50282 3.08644C2.61218 2.97708 2.7605 2.91564 2.91515 2.91564C4.0814 2.91564 5.5392 2.2159 6.55383 1.32955C6.67737 1.22401 6.83452 1.16602 6.99701 1.16602C7.15949 1.16602 7.31664 1.22401 7.44018 1.32955C8.46064 2.22173 9.91262 2.91564 11.0789 2.91564C11.2335 2.91564 11.3818 2.97708 11.4912 3.08644C11.6005 3.19579 11.662 3.34411 11.662 3.49877V7.58062Z" stroke="#98A2B3" stroke-width="1.16624" stroke-linecap="round" stroke-linejoin="round"/>
<path d="M5.24805 6.99742L6.41429 8.16367L8.74678 5.83118" stroke="#98A2B3" stroke-width="1.16624" stroke-linecap="round" stroke-linejoin="round"/>
</g>
<defs>
<clipPath id="clip0_12_691">
<rect width="13.9949" height="13.9949" fill="white"/>
</clipPath>
</defs>
</svg>
