<svg width="14" height="14" viewBox="0 0 14 14" fill="none" xmlns="http://www.w3.org/2000/svg">
<path d="M11.0791 9.91307H12.2453C12.5952 9.91307 12.8285 9.67982 12.8285 9.32995V7.58058C12.8285 7.05577 12.4203 6.58927 11.9538 6.47265C10.9042 6.18109 9.32972 5.83121 9.32972 5.83121C9.32972 5.83121 8.57167 5.01484 8.04686 4.49003C7.7553 4.25678 7.40542 4.08185 6.99724 4.08185H2.91538C2.56551 4.08185 2.27395 4.3151 2.09901 4.60666L1.28264 6.29771C1.20542 6.52293 1.16602 6.75937 1.16602 6.99746V9.32995C1.16602 9.67982 1.39926 9.91307 1.74914 9.91307H2.91538" stroke="#98A2B3" stroke-width="1.16624" stroke-linecap="round" stroke-linejoin="round"/>
<path d="M4.08226 11.0793C4.72636 11.0793 5.2485 10.5572 5.2485 9.91307C5.2485 9.26897 4.72636 8.74683 4.08226 8.74683C3.43816 8.74683 2.91602 9.26897 2.91602 9.91307C2.91602 10.5572 3.43816 11.0793 4.08226 11.0793Z" stroke="#98A2B3" stroke-width="1.16624" stroke-linecap="round" stroke-linejoin="round"/>
<path d="M5.24805 9.91309H8.74678" stroke="#98A2B3" stroke-width="1.16624" stroke-linecap="round" stroke-linejoin="round"/>
<path d="M9.91331 11.0793C10.5574 11.0793 11.0796 10.5572 11.0796 9.91307C11.0796 9.26897 10.5574 8.74683 9.91331 8.74683C9.26922 8.74683 8.74707 9.26897 8.74707 9.91307C8.74707 10.5572 9.26922 11.0793 9.91331 11.0793Z" stroke="#98A2B3" stroke-width="1.16624" stroke-linecap="round" stroke-linejoin="round"/>
</svg>
