<svg width="12" height="12" viewBox="0 0 12 12" fill="none" xmlns="http://www.w3.org/2000/svg">
<g clip-path="url(#clip0_12_63)">
<path d="M9.49413 8.49511H10.4936C10.7934 8.49511 10.9933 8.29522 10.9933 7.99539V6.49626C10.9933 6.04652 10.6435 5.64675 10.2437 5.54681C9.34421 5.29695 7.99499 4.99712 7.99499 4.99712C7.99499 4.99712 7.34537 4.29753 6.89563 3.84778C6.64577 3.6479 6.34594 3.49799 5.99614 3.49799H2.49816C2.19833 3.49799 1.94848 3.69787 1.79856 3.94773L1.09897 5.39689C1.03279 5.58989 0.999023 5.79252 0.999023 5.99655V7.99539C0.999023 8.29522 1.19891 8.49511 1.49874 8.49511H2.49816" stroke="#007A55" stroke-width="1.24928" stroke-linecap="round" stroke-linejoin="round"/>
<path d="M3.49845 9.49451C4.05041 9.49451 4.49787 9.04706 4.49787 8.49509C4.49787 7.94312 4.05041 7.49567 3.49845 7.49567C2.94648 7.49567 2.49902 7.94312 2.49902 8.49509C2.49902 9.04706 2.94648 9.49451 3.49845 9.49451Z" stroke="#007A55" stroke-width="1.24928" stroke-linecap="round" stroke-linejoin="round"/>
<path d="M4.49707 8.49512H7.49534" stroke="#007A55" stroke-width="1.24928" stroke-linecap="round" stroke-linejoin="round"/>
<path d="M8.49552 9.49451C9.04748 9.49451 9.49494 9.04706 9.49494 8.49509C9.49494 7.94312 9.04748 7.49567 8.49552 7.49567C7.94355 7.49567 7.49609 7.94312 7.49609 8.49509C7.49609 9.04706 7.94355 9.49451 8.49552 9.49451Z" stroke="#007A55" stroke-width="1.24928" stroke-linecap="round" stroke-linejoin="round"/>
</g>
<defs>
<clipPath id="clip0_12_63">
<rect width="11.9931" height="11.9931" fill="white"/>
</clipPath>
</defs>
</svg>
