<svg width="14" height="14" viewBox="0 0 14 14" fill="none" xmlns="http://www.w3.org/2000/svg">
<path d="M11.662 5.83121C11.662 8.74273 8.43207 11.775 7.34746 12.7115C7.24642 12.7874 7.12343 12.8285 6.99701 12.8285C6.87059 12.8285 6.74759 12.7874 6.64655 12.7115C5.56194 11.775 2.33203 8.74273 2.33203 5.83121C2.33203 4.59398 2.82352 3.40742 3.69837 2.53257C4.57322 1.65772 5.75978 1.16623 6.99701 1.16623C8.23424 1.16623 9.42079 1.65772 10.2956 2.53257C11.1705 3.40742 11.662 4.59398 11.662 5.83121Z" stroke="#99A1AF" stroke-width="0.874683" stroke-linecap="round" stroke-linejoin="round"/>
<path d="M6.99741 7.58058C7.96356 7.58058 8.74678 6.79736 8.74678 5.83121C8.74678 4.86507 7.96356 4.08185 6.99741 4.08185C6.03126 4.08185 5.24805 4.86507 5.24805 5.83121C5.24805 6.79736 6.03126 7.58058 6.99741 7.58058Z" stroke="#99A1AF" stroke-width="0.874683" stroke-linecap="round" stroke-linejoin="round"/>
</svg>
