<svg width="14" height="14" viewBox="0 0 14 14" fill="none" xmlns="http://www.w3.org/2000/svg">
<g clip-path="url(#clip0_9_5773)">
<path d="M4.08203 5.83121V12.8287" stroke="#155DFC" stroke-width="0.874683" stroke-linecap="round" stroke-linejoin="round"/>
<path d="M8.7466 3.42874L8.16348 5.83121H11.5631C11.7441 5.83121 11.9227 5.87336 12.0846 5.95433C12.2466 6.0353 12.3874 6.15286 12.4961 6.2977C12.6047 6.44255 12.6781 6.61069 12.7105 6.78883C12.7429 6.96696 12.7334 7.15019 12.6827 7.324L11.324 11.989C11.2533 12.2312 11.106 12.444 10.9042 12.5954C10.7023 12.7468 10.4567 12.8287 10.2044 12.8287H2.33226C2.02295 12.8287 1.72631 12.7058 1.5076 12.4871C1.28889 12.2684 1.16602 11.9717 1.16602 11.6624V6.99745C1.16602 6.68814 1.28889 6.3915 1.5076 6.17279C1.72631 5.95408 2.02295 5.83121 2.33226 5.83121H3.94168C4.15865 5.83109 4.37128 5.77045 4.55568 5.65611C4.74007 5.54176 4.88891 5.37824 4.98547 5.18394L6.99724 1.16623C7.27222 1.16963 7.54289 1.23514 7.789 1.35784C8.03512 1.48055 8.25032 1.65728 8.41854 1.87484C8.58676 2.0924 8.70364 2.34516 8.76044 2.61424C8.81725 2.88332 8.81252 3.16175 8.7466 3.42874Z" stroke="#155DFC" stroke-width="0.874683" stroke-linecap="round" stroke-linejoin="round"/>
</g>
<defs>
<clipPath id="clip0_9_5773">
<rect width="13.9949" height="13.9949" fill="white"/>
</clipPath>
</defs>
</svg>
