<svg width="12" height="12" viewBox="0 0 12 12" fill="none" xmlns="http://www.w3.org/2000/svg">
<g clip-path="url(#clip0_150_2322)">
<path d="M4.96545 7.74556C4.92084 7.57263 4.8307 7.41481 4.70441 7.28852C4.57812 7.16223 4.4203 7.07209 4.24737 7.02748L1.18163 6.23693C1.12933 6.22209 1.08329 6.19059 1.05051 6.14721C1.01774 6.10383 1 6.05094 1 5.99657C1 5.9422 1.01774 5.88932 1.05051 5.84594C1.08329 5.80256 1.12933 5.77106 1.18163 5.75621L4.24737 4.96517C4.42024 4.9206 4.57802 4.83053 4.7043 4.70434C4.83059 4.57814 4.92076 4.42043 4.96545 4.24758L5.756 1.18185C5.77069 1.12934 5.80216 1.08308 5.8456 1.05012C5.88905 1.01717 5.94208 0.999329 5.99661 0.999329C6.05114 0.999329 6.10417 1.01717 6.14761 1.05012C6.19105 1.08308 6.22252 1.12934 6.23722 1.18185L7.02726 4.24758C7.07188 4.42052 7.16202 4.57834 7.2883 4.70463C7.41459 4.83091 7.57241 4.92105 7.74535 4.96567L10.8111 5.75571C10.8638 5.77025 10.9103 5.80169 10.9434 5.8452C10.9766 5.88871 10.9945 5.94189 10.9945 5.99657C10.9945 6.05126 10.9766 6.10444 10.9434 6.14795C10.9103 6.19146 10.8638 6.22289 10.8111 6.23743L7.74535 7.02748C7.57241 7.07209 7.41459 7.16223 7.2883 7.28852C7.16202 7.41481 7.07188 7.57263 7.02726 7.74556L6.23672 10.8113C6.22202 10.8638 6.19055 10.9101 6.14711 10.943C6.10367 10.976 6.05064 10.9938 5.99611 10.9938C5.94158 10.9938 5.88855 10.976 5.84511 10.943C5.80166 10.9101 5.77019 10.8638 5.7555 10.8113L4.96545 7.74556Z" stroke="#007A55" stroke-width="0.999424" stroke-linecap="round" stroke-linejoin="round"/>
</g>
<defs>
<clipPath id="clip0_150_2322">
<rect width="11.9931" height="11.9931" fill="white"/>
</clipPath>
</defs>
</svg>
