<svg width="16" height="16" viewBox="0 0 16 16" fill="none" xmlns="http://www.w3.org/2000/svg">
<g clip-path="url(#clip0_131_144)">
<path d="M11.957 8.39518C11.9507 7.24854 12.4694 6.38309 13.5192 5.74571C12.9318 4.90526 12.0444 4.44285 10.8728 4.35225C9.76366 4.26476 8.5514 4.99899 8.10774 4.99899C7.63909 4.99899 6.56431 4.38349 5.72073 4.38349C3.97733 4.41161 2.74945 5.77383 2.24955 8.54827C2.04647 9.68554 2.42452 10.7166 3.02127 11.6851C3.65552 12.7131 4.60845 14.2253 5.66449 14.2253C6.64554 14.2253 7.01109 13.6566 8.2046 13.6566C9.39811 13.6566 9.72304 14.2253 10.7447 14.2253C11.8007 14.2253 12.635 12.8568 13.2692 11.8945C14.0003 10.7853 14.2909 9.69492 14.3034 9.6418C14.2565 9.62306 11.957 8.74199 11.957 6.02378V8.39518ZM9.87614 2.48075C10.426 1.81526 10.8291 0.902943 10.7041 0C9.96362 0.0656117 8.99819 0.549889 8.40456 1.26537C7.88279 1.89024 7.39539 2.83068 7.54536 3.71487C8.37019 3.78049 9.32625 3.14624 9.87614 2.48075Z" fill="#374151"/>
</g>
<defs>
<clipPath id="clip0_131_144">
<rect width="15.9968" height="15.9968" fill="white"/>
</clipPath>
</defs>
</svg>
