<svg width="16" height="16" viewBox="0 0 16 16" fill="none" xmlns="http://www.w3.org/2000/svg">
<g clip-path="url(#clip0_131_130)">
<path d="M15.037 8.16501C15.037 7.64512 14.9903 7.14522 14.9037 6.66531H7.99841V9.50474H11.9443C11.771 10.4179 11.2511 11.1911 10.4712 11.711V13.5573H12.8508C14.2372 12.2775 15.037 10.3979 15.037 8.16501Z" fill="#4285F4"/>
<path d="M7.99841 15.3302C9.97801 15.3302 11.6377 14.677 12.8508 13.5573L10.4712 11.711C9.81804 12.1509 8.98488 12.4175 7.99841 12.4175C6.09213 12.4175 4.47245 11.1311 3.89257 9.3981H1.45306V11.2911C2.65949 13.6839 5.13232 15.3302 7.99841 15.3302Z" fill="#34A853"/>
<path d="M3.89252 9.39144C3.74588 8.95153 3.65923 8.48496 3.65923 7.99839C3.65923 7.51182 3.74588 7.04525 3.89252 6.60534V4.71239H1.45301C0.953113 5.69885 0.666504 6.81196 0.666504 7.99839C0.666504 9.18482 0.953113 10.2979 1.45301 11.2844L3.35263 9.80469L3.89252 9.39144Z" fill="#FBBC05"/>
<path d="M7.99841 3.58595C9.07819 3.58595 10.038 3.9592 10.8045 4.67906L12.9041 2.57948C11.631 1.39305 9.97801 0.666534 7.99841 0.666534C5.13232 0.666534 2.65949 2.31287 1.45306 4.71238L3.89257 6.60534C4.47245 4.87235 6.09213 3.58595 7.99841 3.58595Z" fill="#EA4335"/>
</g>
<defs>
<clipPath id="clip0_131_130">
<rect width="15.9968" height="15.9968" fill="white"/>
</clipPath>
</defs>
</svg>
