<svg width="83" height="28" viewBox="0 0 83 28" fill="none" xmlns="http://www.w3.org/2000/svg">
<path d="M1.29119 20.8726V7.78169H3.66264V13.3236H9.72869V7.78169H12.1065V20.8726H9.72869V15.3115H3.66264V20.8726H1.29119ZM18.4161 21.0644C17.4573 21.0644 16.6263 20.8534 15.9232 20.4315C15.2201 20.0097 14.6746 19.4195 14.2869 18.6609C13.9033 17.9024 13.7116 17.0161 13.7116 16.0019C13.7116 14.9877 13.9033 14.0992 14.2869 13.3364C14.6746 12.5736 15.2201 11.9813 15.9232 11.5594C16.6263 11.1375 17.4573 10.9266 18.4161 10.9266C19.3749 10.9266 20.2059 11.1375 20.909 11.5594C21.6121 11.9813 22.1555 12.5736 22.539 13.3364C22.9268 14.0992 23.1207 14.9877 23.1207 16.0019C23.1207 17.0161 22.9268 17.9024 22.539 18.6609C22.1555 19.4195 21.6121 20.0097 20.909 20.4315C20.2059 20.8534 19.3749 21.0644 18.4161 21.0644ZM18.4289 19.2107C18.9488 19.2107 19.3835 19.0679 19.7329 18.7824C20.0823 18.4926 20.3423 18.1048 20.5127 17.619C20.6874 17.1333 20.7748 16.5921 20.7748 15.9955C20.7748 15.3946 20.6874 14.8513 20.5127 14.3655C20.3423 13.8754 20.0823 13.4855 19.7329 13.1957C19.3835 12.906 18.9488 12.7611 18.4289 12.7611C17.8962 12.7611 17.4531 12.906 17.0994 13.1957C16.7499 13.4855 16.4879 13.8754 16.3131 14.3655C16.1427 14.8513 16.0575 15.3946 16.0575 15.9955C16.0575 16.5921 16.1427 17.1333 16.3131 17.619C16.4879 18.1048 16.7499 18.4926 17.0994 18.7824C17.4531 19.0679 17.8962 19.2107 18.4289 19.2107ZM30.8924 16.7433V11.0544H33.2064V20.8726H30.9627V19.1276H30.8605C30.6389 19.6773 30.2745 20.1269 29.7674 20.4763C29.2646 20.8257 28.6446 21.0004 27.9074 21.0004C27.2639 21.0004 26.695 20.8577 26.2007 20.5722C25.7106 20.2824 25.3271 19.8627 25.0501 19.3129C24.7731 18.759 24.6346 18.0899 24.6346 17.3058V11.0544H26.9485V16.9479C26.9485 17.57 27.119 18.0644 27.4599 18.4308C27.8008 18.7973 28.2483 18.9806 28.8022 18.9806C29.1431 18.9806 29.4734 18.8975 29.793 18.7313C30.1126 18.5651 30.3747 18.3179 30.5792 17.9898C30.788 17.6574 30.8924 17.2419 30.8924 16.7433ZM42.8957 13.6496L40.7864 13.8797C40.7267 13.6666 40.6223 13.4663 40.4732 13.2788C40.3283 13.0913 40.1322 12.9401 39.8851 12.825C39.6379 12.71 39.3354 12.6524 38.9774 12.6524C38.4959 12.6524 38.0911 12.7568 37.7629 12.9656C37.4391 13.1744 37.2793 13.445 37.2835 13.7774C37.2793 14.0629 37.3837 14.2952 37.5967 14.4742C37.8141 14.6531 38.172 14.8002 38.6706 14.9152L40.3453 15.2732C41.2743 15.4734 41.9646 15.7909 42.4163 16.2256C42.8723 16.6602 43.1024 17.2291 43.1067 17.9323C43.1024 18.5502 42.9213 19.0956 42.5634 19.5686C42.2097 20.0374 41.7175 20.4038 41.0868 20.6681C40.4561 20.9323 39.7317 21.0644 38.9135 21.0644C37.7118 21.0644 36.7445 20.8129 36.0115 20.3101C35.2786 19.803 34.8418 19.0977 34.7011 18.1943L36.9575 17.977C37.0598 18.4202 37.2771 18.7547 37.6095 18.9806C37.9419 19.2064 38.3744 19.3193 38.9071 19.3193C39.4568 19.3193 39.8979 19.2064 40.2303 18.9806C40.5669 18.7547 40.7352 18.4756 40.7352 18.1432C40.7352 17.8619 40.6266 17.6297 40.4092 17.4465C40.1962 17.2632 39.8638 17.1226 39.4121 17.0246L37.7374 16.673C36.7956 16.477 36.0989 16.1467 35.6472 15.6823C35.1955 15.2135 34.9717 14.6212 34.976 13.9053C34.9717 13.3002 35.1358 12.776 35.4682 12.3328C35.8048 11.8854 36.2715 11.5402 36.868 11.2973C37.4689 11.0502 38.1614 10.9266 38.9455 10.9266C40.096 10.9266 41.0016 11.1716 41.6621 11.6617C42.3268 12.1517 42.7381 12.8144 42.8957 13.6496ZM44.5647 20.8726V11.0544H46.7764V12.7227H46.8914C47.096 12.1602 47.4347 11.7213 47.9077 11.406C48.3808 11.0864 48.9454 10.9266 49.6016 10.9266C50.2664 10.9266 50.8268 11.0885 51.2827 11.4124C51.743 11.732 52.0668 12.1688 52.2543 12.7227H52.3566C52.5739 12.1773 52.9404 11.7426 53.456 11.4188C53.9759 11.0906 54.5917 10.9266 55.3033 10.9266C56.2067 10.9266 56.944 11.2121 57.515 11.7831C58.086 12.3541 58.3715 13.1872 58.3715 14.2824V20.8726H56.0512V14.6404C56.0512 14.031 55.8893 13.5857 55.5654 13.3044C55.2415 13.0189 54.8452 12.8761 54.3765 12.8761C53.8183 12.8761 53.3815 13.0509 53.0661 13.4003C52.755 13.7455 52.5995 14.195 52.5995 14.749V20.8726H50.3303V14.5445C50.3303 14.0374 50.1769 13.6325 49.8701 13.33C49.5675 13.0274 49.1712 12.8761 48.6812 12.8761C48.3488 12.8761 48.0462 12.9614 47.7735 13.1318C47.5008 13.298 47.2835 13.5345 47.1215 13.8413C46.9596 14.1439 46.8786 14.4976 46.8786 14.9024V20.8726H44.5647ZM63.0943 21.0708C62.4721 21.0708 61.9118 20.96 61.4132 20.7384C60.9189 20.5125 60.5268 20.1801 60.237 19.7412C59.9515 19.3023 59.8088 18.7611 59.8088 18.1176C59.8088 17.5636 59.911 17.1056 60.1156 16.7433C60.3201 16.3811 60.5993 16.0913 60.9529 15.874C61.3066 15.6567 61.7051 15.4926 62.1483 15.3818C62.5957 15.2668 63.0581 15.1837 63.5353 15.1325C64.1106 15.0729 64.5772 15.0196 64.9352 14.9727C65.2931 14.9216 65.5531 14.8449 65.715 14.7426C65.8812 14.6361 65.9643 14.472 65.9643 14.2504V14.2121C65.9643 13.7306 65.8216 13.3577 65.536 13.0935C65.2505 12.8293 64.8393 12.6972 64.3024 12.6972C63.7356 12.6972 63.286 12.8208 62.9537 13.0679C62.6255 13.3151 62.4039 13.607 62.2889 13.9436L60.1284 13.6368C60.2988 13.0402 60.5801 12.5416 60.9721 12.1411C61.3642 11.7362 61.8436 11.4337 62.4103 11.2334C62.9771 11.0288 63.6035 10.9266 64.2896 10.9266C64.7626 10.9266 65.2335 10.982 65.7022 11.0928C66.171 11.2036 66.5993 11.3868 66.987 11.6425C67.3748 11.8939 67.6859 12.2369 67.9203 12.6716C68.1589 13.1063 68.2782 13.6496 68.2782 14.3016V20.8726H66.0538V19.5239H65.9771C65.8365 19.7966 65.6383 20.0523 65.3826 20.2909C65.1312 20.5253 64.8137 20.7149 64.4302 20.8598C64.051 21.0004 63.6056 21.0708 63.0943 21.0708ZM63.6951 19.3705C64.1596 19.3705 64.5623 19.2788 64.9032 19.0956C65.2441 18.9081 65.5062 18.6609 65.6895 18.3541C65.877 18.0473 65.9707 17.7128 65.9707 17.3506V16.1936C65.8983 16.2533 65.7747 16.3087 65.6 16.3598C65.4295 16.4109 65.2377 16.4557 65.0247 16.494C64.8116 16.5324 64.6007 16.5665 64.3919 16.5963C64.1831 16.6261 64.002 16.6517 63.8485 16.673C63.5034 16.7199 63.1944 16.7966 62.9217 16.9031C62.649 17.0097 62.4338 17.1588 62.2761 17.3506C62.1184 17.5381 62.0396 17.781 62.0396 18.0793C62.0396 18.5054 62.1951 18.8271 62.5062 19.0445C62.8173 19.2618 63.2136 19.3705 63.6951 19.3705ZM70.1549 20.8726V11.0544H72.3985V12.6908H72.5008C72.6798 12.124 72.9866 11.6872 73.4213 11.3804C73.8602 11.0693 74.3609 10.9138 74.9234 10.9138C75.0512 10.9138 75.194 10.9202 75.3517 10.933C75.5136 10.9415 75.6478 10.9564 75.7544 10.9777V13.1063C75.6564 13.0722 75.5008 13.0423 75.2878 13.0168C75.0789 12.9869 74.8765 12.972 74.6805 12.972C74.2586 12.972 73.8794 13.0636 73.5427 13.2469C73.2103 13.4259 72.9483 13.6752 72.7565 13.9948C72.5647 14.3144 72.4689 14.683 72.4689 15.1006V20.8726H70.1549ZM82.2717 11.0544V12.8442H76.6275V11.0544H82.2717ZM78.021 8.70214H80.3349V17.9195C80.3349 18.2306 80.3818 18.4692 80.4755 18.6354C80.5735 18.7973 80.7014 18.9081 80.8591 18.9678C81.0167 19.0274 81.1914 19.0573 81.3832 19.0573C81.5281 19.0573 81.6602 19.0466 81.7795 19.0253C81.9031 19.004 81.9968 18.9848 82.0608 18.9678L82.4507 20.7767C82.3271 20.8193 82.1502 20.8662 81.9201 20.9173C81.6943 20.9685 81.4173 20.9983 81.0892 21.0068C80.5096 21.0239 79.9876 20.9365 79.5231 20.7448C79.0586 20.5487 78.69 20.2462 78.4173 19.8371C78.1488 19.428 78.0167 18.9166 78.021 18.303V8.70214Z" fill="white" fill-opacity="0.9"/>
</svg>
