<svg width="32" height="32" viewBox="0 0 32 32" fill="none" xmlns="http://www.w3.org/2000/svg">
<path d="M0 10C0 4.47716 4.47715 0 10 0H21.9935C27.5164 0 31.9935 4.47715 31.9935 10V21.9935C31.9935 27.5164 27.5164 31.9935 21.9935 31.9935H10C4.47716 31.9935 0 27.5164 0 21.9935V10Z" fill="white"/>
<path d="M15.9945 23.9974V18.6651C15.9945 18.4884 15.9243 18.3188 15.7993 18.1938C15.6743 18.0688 15.5048 17.9986 15.328 17.9986H12.6619C12.4851 17.9986 12.3156 18.0688 12.1906 18.1938C12.0656 18.3188 11.9953 18.4884 11.9953 18.6651V23.9974" stroke="#101828" stroke-width="1.66633" stroke-linecap="round" stroke-linejoin="round"/>
<path d="M7.99614 16.6655C7.99609 16.4716 8.03835 16.28 8.11997 16.1041C8.20159 15.9282 8.32061 15.7723 8.46871 15.6471L13.1344 11.6486C13.375 11.4452 13.6799 11.3336 13.9949 11.3336C14.31 11.3336 14.6148 11.4452 14.8554 11.6486L19.5211 15.6471C19.6693 15.7723 19.7883 15.9282 19.8699 16.1041C19.9515 16.28 19.9938 16.4716 19.9937 16.6655V22.6643C19.9937 23.0179 19.8533 23.357 19.6033 23.607C19.3533 23.857 19.0142 23.9974 18.6607 23.9974H9.3292C8.97565 23.9974 8.63658 23.857 8.38658 23.607C8.13659 23.357 7.99614 23.0179 7.99614 22.6643V16.6655Z" stroke="#101828" stroke-width="1.66633" stroke-linecap="round" stroke-linejoin="round"/>
<g clip-path="url(#clip0_38_125)">
<path d="M20.1425 12.4492C20.1054 12.3052 20.0303 12.1737 19.9251 12.0685C19.8199 11.9633 19.6884 11.8882 19.5443 11.851L16.9903 11.1924C16.9467 11.18 16.9084 11.1538 16.8811 11.1177C16.8538 11.0815 16.839 11.0375 16.839 10.9922C16.839 10.9469 16.8538 10.9028 16.8811 10.8667C16.9084 10.8305 16.9467 10.8043 16.9903 10.7919L19.5443 10.1329C19.6883 10.0958 19.8198 10.0208 19.925 9.91563C20.0302 9.8105 20.1053 9.6791 20.1425 9.53511L20.8011 6.9811C20.8134 6.93735 20.8396 6.89881 20.8758 6.87136C20.912 6.8439 20.9561 6.82904 21.0016 6.82904C21.047 6.82904 21.0912 6.8439 21.1274 6.87136C21.1636 6.89881 21.1898 6.93735 21.202 6.9811L21.8602 9.53511C21.8974 9.67918 21.9725 9.81066 22.0777 9.91587C22.1829 10.0211 22.3144 10.0962 22.4584 10.1333L25.0124 10.7915C25.0564 10.8036 25.0951 10.8298 25.1227 10.8661C25.1503 10.9023 25.1652 10.9466 25.1652 10.9922C25.1652 11.0377 25.1503 11.082 25.1227 11.1183C25.0951 11.1545 25.0564 11.1807 25.0124 11.1928L22.4584 11.851C22.3144 11.8882 22.1829 11.9633 22.0777 12.0685C21.9725 12.1737 21.8974 12.3052 21.8602 12.4492L21.2016 15.0032C21.1894 15.047 21.1631 15.0855 21.127 15.113C21.0908 15.1404 21.0466 15.1553 21.0012 15.1553C20.9557 15.1553 20.9116 15.1404 20.8754 15.113C20.8392 15.0855 20.813 15.047 20.8007 15.0032L20.1425 12.4492Z" stroke="#101828" stroke-width="1.04076" stroke-linecap="round" stroke-linejoin="round"/>
</g>
<defs>
<clipPath id="clip0_38_125">
<rect width="9.99125" height="9.99125" fill="white" transform="translate(16.0057 5.99654)"/>
</clipPath>
</defs>
</svg>
