<svg width="57" height="5" viewBox="0 0 57 5" fill="none" xmlns="http://www.w3.org/2000/svg">
<path d="M2.18751 4.37501C1.78646 4.37501 1.42022 4.27723 1.08878 4.08168C0.757345 3.88282 0.492193 3.61767 0.29333 3.28623C0.0977802 2.95479 5.55813e-06 2.58855 5.55813e-06 2.18751C5.55813e-06 1.78315 0.0977802 1.41691 0.29333 1.08878C0.492193 0.757344 0.757345 0.49385 1.08878 0.298301C1.42022 0.099437 1.78646 5.24521e-06 2.18751 5.24521e-06C2.59186 5.24521e-06 2.9581 0.099437 3.28623 0.298301C3.61767 0.49385 3.88116 0.757344 4.07671 1.08878C4.27557 1.41691 4.37501 1.78315 4.37501 2.18751C4.37501 2.58855 4.27557 2.95479 4.07671 3.28623C3.88116 3.61767 3.61767 3.88282 3.28623 4.08168C2.9581 4.27723 2.59186 4.37501 2.18751 4.37501ZM9.59766 4.37501C9.19662 4.37501 8.83038 4.27723 8.49894 4.08168C8.1675 3.88282 7.90235 3.61767 7.70349 3.28623C7.50794 2.95479 7.41016 2.58855 7.41016 2.18751C7.41016 1.78315 7.50794 1.41691 7.70349 1.08878C7.90235 0.757344 8.1675 0.49385 8.49894 0.298301C8.83038 0.099437 9.19662 5.24521e-06 9.59766 5.24521e-06C10.002 5.24521e-06 10.3683 0.099437 10.6964 0.298301C11.0278 0.49385 11.2913 0.757344 11.4869 1.08878C11.6857 1.41691 11.7852 1.78315 11.7852 2.18751C11.7852 2.58855 11.6857 2.95479 11.4869 3.28623C11.2913 3.61767 11.0278 3.88282 10.6964 4.08168C10.3683 4.27723 10.002 4.37501 9.59766 4.37501ZM17.0078 4.37501C16.6068 4.37501 16.2405 4.27723 15.9091 4.08168C15.5777 3.88282 15.3125 3.61767 15.1136 3.28623C14.9181 2.95479 14.8203 2.58855 14.8203 2.18751C14.8203 1.78315 14.9181 1.41691 15.1136 1.08878C15.3125 0.757344 15.5777 0.49385 15.9091 0.298301C16.2405 0.099437 16.6068 5.24521e-06 17.0078 5.24521e-06C17.4122 5.24521e-06 17.7784 0.099437 18.1065 0.298301C18.438 0.49385 18.7015 0.757344 18.897 1.08878C19.0959 1.41691 19.1953 1.78315 19.1953 2.18751C19.1953 2.58855 19.0959 2.95479 18.897 3.28623C18.7015 3.61767 18.438 3.88282 18.1065 4.08168C17.7784 4.27723 17.4122 4.37501 17.0078 4.37501ZM24.418 4.37501C24.0169 4.37501 23.6507 4.27723 23.3193 4.08168C22.9878 3.88282 22.7227 3.61767 22.5238 3.28623C22.3282 2.95479 22.2305 2.58855 22.2305 2.18751C22.2305 1.78315 22.3282 1.41691 22.5238 1.08878C22.7227 0.757344 22.9878 0.49385 23.3193 0.298301C23.6507 0.099437 24.0169 5.24521e-06 24.418 5.24521e-06C24.8223 5.24521e-06 25.1886 0.099437 25.5167 0.298301C25.8481 0.49385 26.1116 0.757344 26.3072 1.08878C26.506 1.41691 26.6055 1.78315 26.6055 2.18751C26.6055 2.58855 26.506 2.95479 26.3072 3.28623C26.1116 3.61767 25.8481 3.88282 25.5167 4.08168C25.1886 4.27723 24.8223 4.37501 24.418 4.37501ZM31.8281 4.37501C31.4271 4.37501 31.0608 4.27723 30.7294 4.08168C30.398 3.88282 30.1328 3.61767 29.934 3.28623C29.7384 2.95479 29.6406 2.58855 29.6406 2.18751C29.6406 1.78315 29.7384 1.41691 29.934 1.08878C30.1328 0.757344 30.398 0.49385 30.7294 0.298301C31.0608 0.099437 31.4271 5.24521e-06 31.8281 5.24521e-06C32.2325 5.24521e-06 32.5987 0.099437 32.9269 0.298301C33.2583 0.49385 33.5218 0.757344 33.7173 1.08878C33.9162 1.41691 34.0156 1.78315 34.0156 2.18751C34.0156 2.58855 33.9162 2.95479 33.7173 3.28623C33.5218 3.61767 33.2583 3.88282 32.9269 4.08168C32.5987 4.27723 32.2325 4.37501 31.8281 4.37501ZM39.2383 4.37501C38.8372 4.37501 38.471 4.27723 38.1396 4.08168C37.8081 3.88282 37.543 3.61767 37.3441 3.28623C37.1486 2.95479 37.0508 2.58855 37.0508 2.18751C37.0508 1.78315 37.1486 1.41691 37.3441 1.08878C37.543 0.757344 37.8081 0.49385 38.1396 0.298301C38.471 0.099437 38.8372 5.24521e-06 39.2383 5.24521e-06C39.6426 5.24521e-06 40.0089 0.099437 40.337 0.298301C40.6684 0.49385 40.9319 0.757344 41.1275 1.08878C41.3264 1.41691 41.4258 1.78315 41.4258 2.18751C41.4258 2.58855 41.3264 2.95479 41.1275 3.28623C40.9319 3.61767 40.6684 3.88282 40.337 4.08168C40.0089 4.27723 39.6426 4.37501 39.2383 4.37501ZM46.6484 4.37501C46.2474 4.37501 45.8812 4.27723 45.5497 4.08168C45.2183 3.88282 44.9531 3.61767 44.7543 3.28623C44.5587 2.95479 44.4609 2.58855 44.4609 2.18751C44.4609 1.78315 44.5587 1.41691 44.7543 1.08878C44.9531 0.757344 45.2183 0.49385 45.5497 0.298301C45.8812 0.099437 46.2474 5.24521e-06 46.6484 5.24521e-06C47.0528 5.24521e-06 47.419 0.099437 47.7472 0.298301C48.0786 0.49385 48.3421 0.757344 48.5376 1.08878C48.7365 1.41691 48.8359 1.78315 48.8359 2.18751C48.8359 2.58855 48.7365 2.95479 48.5376 3.28623C48.3421 3.61767 48.0786 3.88282 47.7472 4.08168C47.419 4.27723 47.0528 4.37501 46.6484 4.37501ZM54.0586 4.37501C53.6576 4.37501 53.2913 4.27723 52.9599 4.08168C52.6284 3.88282 52.3633 3.61767 52.1644 3.28623C51.9689 2.95479 51.8711 2.58855 51.8711 2.18751C51.8711 1.78315 51.9689 1.41691 52.1644 1.08878C52.3633 0.757344 52.6284 0.49385 52.9599 0.298301C53.2913 0.099437 53.6576 5.24521e-06 54.0586 5.24521e-06C54.463 5.24521e-06 54.8292 0.099437 55.1573 0.298301C55.4888 0.49385 55.7523 0.757344 55.9478 1.08878C56.1467 1.41691 56.2461 1.78315 56.2461 2.18751C56.2461 2.58855 56.1467 2.95479 55.9478 3.28623C55.7523 3.61767 55.4888 3.88282 55.1573 4.08168C54.8292 4.27723 54.463 4.37501 54.0586 4.37501Z" fill="#99A1AF"/>
</svg>
