<svg width="10" height="10" viewBox="0 0 10 10" fill="none" xmlns="http://www.w3.org/2000/svg">
<g clip-path="url(#clip0_12_25)">
<path d="M4.13656 6.45268C4.0994 6.30861 4.0243 6.17714 3.91909 6.07193C3.81388 5.96672 3.68241 5.89163 3.53834 5.85446L0.984323 5.19587C0.940749 5.1835 0.902399 5.15726 0.875091 5.12112C0.847783 5.08498 0.833008 5.04092 0.833008 4.99563C0.833008 4.95033 0.847783 4.90627 0.875091 4.87014C0.902399 4.834 0.940749 4.80775 0.984323 4.79539L3.53834 4.13638C3.68236 4.09925 3.8138 4.02422 3.919 3.91909C4.02421 3.81396 4.09933 3.68256 4.13656 3.53857L4.79515 0.984558C4.80739 0.940813 4.83361 0.902273 4.8698 0.874819C4.906 0.847365 4.95017 0.832504 4.9956 0.832504C5.04103 0.832504 5.08521 0.847365 5.1214 0.874819C5.15759 0.902273 5.18381 0.940813 5.19605 0.984558L5.85422 3.53857C5.89139 3.68264 5.96649 3.81412 6.07169 3.91933C6.1769 4.02454 6.30838 4.09963 6.45245 4.1368L9.00646 4.79497C9.05038 4.80708 9.08912 4.83327 9.11672 4.86952C9.14432 4.90577 9.15927 4.95007 9.15927 4.99563C9.15927 5.04119 9.14432 5.08549 9.11672 5.12174C9.08912 5.15798 9.05038 5.18417 9.00646 5.19629L6.45245 5.85446C6.30838 5.89163 6.1769 5.96672 6.07169 6.07193C5.96649 6.17714 5.89139 6.30861 5.85422 6.45268L5.19563 9.0067C5.18339 9.05044 5.15718 9.08898 5.12098 9.11644C5.08479 9.14389 5.04061 9.15875 4.99519 9.15875C4.94976 9.15875 4.90558 9.14389 4.86939 9.11644C4.8332 9.08898 4.80698 9.05044 4.79474 9.0067L4.13656 6.45268Z" fill="#007A55" stroke="#007A55" stroke-width="0.832604" stroke-linecap="round" stroke-linejoin="round"/>
</g>
<defs>
<clipPath id="clip0_12_25">
<rect width="9.99125" height="9.99125" fill="white"/>
</clipPath>
</defs>
</svg>
