<svg width="12" height="12" viewBox="0 0 12 12" fill="none" xmlns="http://www.w3.org/2000/svg">
<g clip-path="url(#clip0_12_585)">
<path d="M5.49707 0.999451V1.99887" stroke="#B91C1C" stroke-width="1.24928" stroke-linecap="round" stroke-linejoin="round"/>
<path d="M2.49902 0.999451V1.99887" stroke="#B91C1C" stroke-width="1.24928" stroke-linecap="round" stroke-linejoin="round"/>
<path d="M2.49816 1.49915H1.99845C1.73338 1.49915 1.47918 1.60444 1.29175 1.79187C1.10432 1.9793 0.999023 2.23351 0.999023 2.49857V4.49742C0.999023 5.29261 1.31491 6.05523 1.8772 6.61752C2.43948 7.1798 3.2021 7.49569 3.9973 7.49569C4.79249 7.49569 5.55511 7.1798 6.11739 6.61752C6.67968 6.05523 6.99557 5.29261 6.99557 4.49742V2.49857C6.99557 2.23351 6.89027 1.9793 6.70284 1.79187C6.51541 1.60444 6.26121 1.49915 5.99614 1.49915H5.49643" stroke="#B91C1C" stroke-width="1.24928" stroke-linecap="round" stroke-linejoin="round"/>
<path d="M3.99805 7.49566C3.99805 8.29085 4.31394 9.05347 4.87622 9.61576C5.43851 10.178 6.20113 10.4939 6.99632 10.4939C7.79151 10.4939 8.55413 10.178 9.11642 9.61576C9.6787 9.05347 9.99459 8.29085 9.99459 7.49566V5.99652" stroke="#B91C1C" stroke-width="1.24928" stroke-linecap="round" stroke-linejoin="round"/>
<path d="M9.99454 5.99653C10.5465 5.99653 10.994 5.54907 10.994 4.9971C10.994 4.44514 10.5465 3.99768 9.99454 3.99768C9.44257 3.99768 8.99512 4.44514 8.99512 4.9971C8.99512 5.54907 9.44257 5.99653 9.99454 5.99653Z" stroke="#B91C1C" stroke-width="1.24928" stroke-linecap="round" stroke-linejoin="round"/>
</g>
<defs>
<clipPath id="clip0_12_585">
<rect width="11.9931" height="11.9931" fill="white"/>
</clipPath>
</defs>
</svg>
