<svg width="12" height="12" viewBox="0 0 12 12" fill="none" xmlns="http://www.w3.org/2000/svg">
<g clip-path="url(#clip0_12_558)">
<path d="M2.99805 10.9937V1.99887C2.99805 1.73381 3.10334 1.4796 3.29077 1.29218C3.4782 1.10475 3.73241 0.999451 3.99747 0.999451H7.99517C8.26023 0.999451 8.51444 1.10475 8.70187 1.29218C8.88929 1.4796 8.99459 1.73381 8.99459 1.99887V10.9937H2.99805Z" stroke="#374151" stroke-width="1.24928" stroke-linecap="round" stroke-linejoin="round"/>
<path d="M2.99787 5.99652H1.99845C1.73338 5.99652 1.47918 6.10182 1.29175 6.28925C1.10432 6.47667 0.999023 6.73088 0.999023 6.99595V9.99422C0.999023 10.2593 1.10432 10.5135 1.29175 10.7009C1.47918 10.8883 1.73338 10.9936 1.99845 10.9936H2.99787" stroke="#374151" stroke-width="1.24928" stroke-linecap="round" stroke-linejoin="round"/>
<path d="M8.99512 4.49744H9.99454C10.2596 4.49744 10.5138 4.60273 10.7012 4.79016C10.8887 4.97759 10.994 5.2318 10.994 5.49686V9.99427C10.994 10.2593 10.8887 10.5135 10.7012 10.701C10.5138 10.8884 10.2596 10.9937 9.99454 10.9937H8.99512" stroke="#374151" stroke-width="1.24928" stroke-linecap="round" stroke-linejoin="round"/>
<path d="M4.99707 2.99829H6.99592" stroke="#374151" stroke-width="1.24928" stroke-linecap="round" stroke-linejoin="round"/>
<path d="M4.99707 4.99713H6.99592" stroke="#374151" stroke-width="1.24928" stroke-linecap="round" stroke-linejoin="round"/>
<path d="M4.99707 6.99597H6.99592" stroke="#374151" stroke-width="1.24928" stroke-linecap="round" stroke-linejoin="round"/>
<path d="M4.99707 8.99481H6.99592" stroke="#374151" stroke-width="1.24928" stroke-linecap="round" stroke-linejoin="round"/>
</g>
<defs>
<clipPath id="clip0_12_558">
<rect width="11.9931" height="11.9931" fill="white"/>
</clipPath>
</defs>
</svg>
