<svg width="12" height="12" viewBox="0 0 12 12" fill="none" xmlns="http://www.w3.org/2000/svg">
<g clip-path="url(#clip0_12_550)">
<path d="M10.7038 5.45783C10.7933 5.41836 10.8692 5.35352 10.9222 5.27133C10.9751 5.18915 11.0028 5.09323 11.0018 4.99546C11.0008 4.89769 10.9711 4.80236 10.9165 4.72129C10.8618 4.64022 10.7846 4.57696 10.6943 4.53935L6.41129 2.58848C6.28109 2.52909 6.13964 2.49835 5.99653 2.49835C5.85342 2.49835 5.71198 2.52909 5.58177 2.58848L1.29924 4.53736C1.21027 4.57632 1.13459 4.64036 1.08145 4.72166C1.0283 4.80295 1 4.89797 1 4.99509C1 5.09222 1.0283 5.18723 1.08145 5.26853C1.13459 5.34982 1.21027 5.41386 1.29924 5.45283L5.58177 7.4057C5.71198 7.46509 5.85342 7.49583 5.99653 7.49583C6.13964 7.49583 6.28109 7.46509 6.41129 7.4057L10.7038 5.45783Z" stroke="#1D4ED8" stroke-width="1.24928" stroke-linecap="round" stroke-linejoin="round"/>
<path d="M10.9941 4.99713V7.9954" stroke="#1D4ED8" stroke-width="1.24928" stroke-linecap="round" stroke-linejoin="round"/>
<path d="M2.99805 6.2464V7.99539C2.99805 8.39299 3.31394 8.7743 3.87622 9.05544C4.43851 9.33658 5.20113 9.49453 5.99632 9.49453C6.79151 9.49453 7.55413 9.33658 8.11642 9.05544C8.6787 8.7743 8.99459 8.39299 8.99459 7.99539V6.2464" stroke="#1D4ED8" stroke-width="1.24928" stroke-linecap="round" stroke-linejoin="round"/>
</g>
<defs>
<clipPath id="clip0_12_550">
<rect width="11.9931" height="11.9931" fill="white"/>
</clipPath>
</defs>
</svg>
